G04*
G04 #@! TF.GenerationSoftware,Altium Limited,Altium Designer,21.6.1 (37)*
G04*
G04 Layer_Physical_Order=1*
G04 Layer_Color=255*
%FSLAX25Y25*%
%MOIN*%
G70*
G04*
G04 #@! TF.SameCoordinates,DC8E1805-1AE0-4662-A60C-033F26306971*
G04*
G04*
G04 #@! TF.FilePolarity,Positive*
G04*
G01*
G75*
G04:AMPARAMS|DCode=13|XSize=47.24mil|YSize=120.08mil|CornerRadius=11.81mil|HoleSize=0mil|Usage=FLASHONLY|Rotation=0.000|XOffset=0mil|YOffset=0mil|HoleType=Round|Shape=RoundedRectangle|*
%AMROUNDEDRECTD13*
21,1,0.04724,0.09646,0,0,0.0*
21,1,0.02362,0.12008,0,0,0.0*
1,1,0.02362,0.01181,-0.04823*
1,1,0.02362,-0.01181,-0.04823*
1,1,0.02362,-0.01181,0.04823*
1,1,0.02362,0.01181,0.04823*
%
%ADD13ROUNDEDRECTD13*%
%ADD14R,0.35433X0.39370*%
%ADD15R,0.05315X0.04528*%
%ADD16R,0.11417X0.21260*%
%ADD17R,0.09843X0.06693*%
%ADD25C,0.04724*%
G04:AMPARAMS|DCode=26|XSize=157.48mil|YSize=157.48mil|CornerRadius=39.37mil|HoleSize=0mil|Usage=FLASHONLY|Rotation=0.000|XOffset=0mil|YOffset=0mil|HoleType=Round|Shape=RoundedRectangle|*
%AMROUNDEDRECTD26*
21,1,0.15748,0.07874,0,0,0.0*
21,1,0.07874,0.15748,0,0,0.0*
1,1,0.07874,0.03937,-0.03937*
1,1,0.07874,-0.03937,-0.03937*
1,1,0.07874,-0.03937,0.03937*
1,1,0.07874,0.03937,0.03937*
%
%ADD26ROUNDEDRECTD26*%
%ADD27O,0.08268X0.05512*%
%ADD28C,0.02756*%
G36*
X501968Y319882D02*
Y268701D01*
X499016Y265748D01*
X470472D01*
X442913Y293307D01*
Y312992D01*
X435039D01*
X424213Y323819D01*
Y332677D01*
X440945D01*
X441929Y331693D01*
X450787Y340551D01*
X481299D01*
X501968Y319882D01*
D02*
G37*
G36*
X502925Y365723D02*
Y320442D01*
X502432Y320341D01*
X502425Y320341D01*
X481757Y341009D01*
X481299Y341199D01*
X450787D01*
X450329Y341009D01*
X441929Y332609D01*
X441403Y333135D01*
X440945Y333325D01*
X430421D01*
Y338984D01*
X430152D01*
Y344087D01*
X430421D01*
Y349811D01*
X427992D01*
X427938Y349833D01*
X427165Y349935D01*
X426393Y349833D01*
X426339Y349811D01*
X423909D01*
Y344087D01*
X424179D01*
Y339010D01*
X420669D01*
X419896Y338908D01*
X419176Y338610D01*
X418558Y338135D01*
X418558Y338135D01*
X415211Y334789D01*
X414737Y334170D01*
X414438Y333450D01*
X414337Y332677D01*
Y312261D01*
X412149Y310073D01*
X405512D01*
X405512Y310073D01*
X404739Y309971D01*
X404019Y309673D01*
X403400Y309198D01*
X398778Y304576D01*
X398304Y303958D01*
X398005Y303237D01*
X397904Y302465D01*
Y300031D01*
X397894Y299984D01*
X397405D01*
X397236Y300835D01*
X396754Y301557D01*
X396032Y302039D01*
X395181Y302208D01*
X394500D01*
Y295161D01*
Y288115D01*
X395181D01*
X396032Y288284D01*
X396754Y288766D01*
X397236Y289488D01*
X397405Y290339D01*
X397894D01*
X398032Y289644D01*
X398426Y289056D01*
X399014Y288662D01*
X399709Y288524D01*
X402071D01*
X402765Y288662D01*
X403354Y289056D01*
X403747Y289644D01*
X403885Y290339D01*
Y299984D01*
X403876Y300031D01*
Y301228D01*
X406749Y304100D01*
X413386D01*
X414159Y304202D01*
X414879Y304501D01*
X415497Y304975D01*
X419434Y308912D01*
X419909Y309530D01*
X420207Y310251D01*
X420309Y311024D01*
Y331440D01*
X421906Y333037D01*
X423324D01*
X423565Y332677D01*
Y323819D01*
X423755Y323361D01*
X434581Y312534D01*
X435039Y312344D01*
X442266D01*
Y293307D01*
X442455Y292849D01*
X470014Y265290D01*
X470472Y265100D01*
X499016D01*
X499474Y265290D01*
X502425Y268242D01*
X502432Y268242D01*
X502925Y268141D01*
Y266167D01*
X499581Y262823D01*
X351938D01*
X351837Y263316D01*
X351837Y263323D01*
X372316Y283801D01*
X377953D01*
X378411Y283991D01*
X382749Y288329D01*
X383210Y288137D01*
Y287670D01*
X381432Y285891D01*
X381432Y285891D01*
X377495Y281954D01*
X377305Y281496D01*
Y267717D01*
X377495Y267259D01*
X377953Y267069D01*
X391732D01*
X392190Y267259D01*
X394159Y269227D01*
X394349Y269685D01*
Y278880D01*
X437008D01*
X437466Y279069D01*
X437656Y279528D01*
Y303150D01*
X437466Y303608D01*
X437008Y303797D01*
X421260D01*
X420802Y303608D01*
X420612Y303150D01*
Y285701D01*
X419023Y284112D01*
X393969D01*
X390411Y287670D01*
Y289116D01*
X390912Y289267D01*
X391246Y288766D01*
X391968Y288284D01*
X392819Y288115D01*
X393500D01*
Y295161D01*
Y302208D01*
X392819D01*
X391968Y302039D01*
X391246Y301557D01*
X390912Y301056D01*
X390488Y301162D01*
X390405Y301197D01*
X390386Y301243D01*
X390399Y301308D01*
X390294Y301465D01*
X390222Y301639D01*
X390160Y301665D01*
X390123Y301720D01*
X389938Y301757D01*
X389768Y301827D01*
X389764Y301829D01*
X389702Y301803D01*
X389637Y301816D01*
X389633Y301814D01*
X389480Y301711D01*
X389306Y301639D01*
X388986Y301660D01*
X388291Y301799D01*
X385929D01*
X385909Y301795D01*
X385827Y301829D01*
X383858D01*
X383400Y301639D01*
X383299Y301395D01*
X382749Y301238D01*
X382348Y301639D01*
X382234Y301686D01*
X382148Y301775D01*
X359510Y311618D01*
X359376Y311620D01*
X359252Y311671D01*
X336614D01*
X336156Y311482D01*
X325329Y300655D01*
X325140Y300197D01*
Y265748D01*
X325329Y265290D01*
X327297Y263323D01*
X327297Y263316D01*
X327196Y262823D01*
X325222D01*
X321878Y266167D01*
Y365723D01*
X325222Y369067D01*
X499581D01*
X502925Y365723D01*
D02*
G37*
G36*
X437008Y279528D02*
X393701D01*
Y269685D01*
X391732Y267717D01*
X377953D01*
Y281496D01*
X381890Y285433D01*
X381890D01*
X383858Y287402D01*
Y301181D01*
X385827D01*
Y295276D01*
X389764Y301181D01*
Y287402D01*
X393701Y283465D01*
X419291D01*
X421260Y285433D01*
Y303150D01*
X437008D01*
Y279528D01*
D02*
G37*
G36*
X381890Y301181D02*
X382874Y300197D01*
Y289370D01*
X377953Y284449D01*
X372047D01*
X351378Y263779D01*
X327756D01*
X325787Y265748D01*
Y300197D01*
X336614Y311024D01*
X359252D01*
X381890Y301181D01*
D02*
G37*
%LPC*%
G36*
X496063Y363033D02*
X493110D01*
Y355315D01*
X500828D01*
Y358268D01*
X500666Y359501D01*
X500190Y360650D01*
X499433Y361637D01*
X498446Y362394D01*
X497296Y362871D01*
X496063Y363033D01*
D02*
G37*
G36*
X491142D02*
X488189D01*
X486956Y362871D01*
X485806Y362394D01*
X484820Y361637D01*
X484062Y360650D01*
X483586Y359501D01*
X483424Y358268D01*
Y355315D01*
X491142D01*
Y363033D01*
D02*
G37*
G36*
X348425D02*
X345472D01*
Y355315D01*
X353190D01*
Y358268D01*
X353028Y359501D01*
X352552Y360650D01*
X351795Y361637D01*
X350808Y362394D01*
X349658Y362871D01*
X348425Y363033D01*
D02*
G37*
G36*
X343504D02*
X340551D01*
X339318Y362871D01*
X338169Y362394D01*
X337182Y361637D01*
X336424Y360650D01*
X335948Y359501D01*
X335786Y358268D01*
Y355315D01*
X343504D01*
Y363033D01*
D02*
G37*
G36*
X430823Y357102D02*
X427665D01*
Y354339D01*
X430823D01*
Y357102D01*
D02*
G37*
G36*
X426665D02*
X423508D01*
Y354339D01*
X426665D01*
Y357102D01*
D02*
G37*
G36*
X430823Y353339D02*
X427665D01*
Y350575D01*
X430823D01*
Y353339D01*
D02*
G37*
G36*
X426665D02*
X423508D01*
Y350575D01*
X426665D01*
Y353339D01*
D02*
G37*
G36*
X458071Y351015D02*
X457677D01*
Y348425D01*
X461498D01*
X461166Y349228D01*
X460598Y349968D01*
X459858Y350536D01*
X458996Y350893D01*
X458071Y351015D01*
D02*
G37*
G36*
X455709D02*
X455315D01*
X454390Y350893D01*
X453528Y350536D01*
X452788Y349968D01*
X452220Y349228D01*
X451887Y348425D01*
X455709D01*
Y351015D01*
D02*
G37*
G36*
X500828Y353346D02*
X493110D01*
Y345628D01*
X496063D01*
X497296Y345791D01*
X498446Y346267D01*
X499433Y347024D01*
X500190Y348011D01*
X500666Y349160D01*
X500828Y350394D01*
Y353346D01*
D02*
G37*
G36*
X491142D02*
X483424D01*
Y350394D01*
X483586Y349160D01*
X484062Y348011D01*
X484820Y347024D01*
X485806Y346267D01*
X486956Y345791D01*
X488189Y345628D01*
X491142D01*
Y353346D01*
D02*
G37*
G36*
X353190D02*
X345472D01*
Y345628D01*
X348425D01*
X349658Y345791D01*
X350808Y346267D01*
X351795Y347024D01*
X352552Y348011D01*
X353028Y349160D01*
X353190Y350394D01*
Y353346D01*
D02*
G37*
G36*
X343504D02*
X335786D01*
Y350394D01*
X335948Y349160D01*
X336424Y348011D01*
X337182Y347024D01*
X338169Y346267D01*
X339318Y345791D01*
X340551Y345628D01*
X343504D01*
Y353346D01*
D02*
G37*
G36*
X461498Y346457D02*
X457677D01*
Y343867D01*
X458071D01*
X458996Y343989D01*
X459858Y344346D01*
X460598Y344914D01*
X461166Y345654D01*
X461498Y346457D01*
D02*
G37*
G36*
X455709D02*
X451887D01*
X452220Y345654D01*
X452788Y344914D01*
X453528Y344346D01*
X454390Y343989D01*
X455315Y343867D01*
X455709D01*
Y346457D01*
D02*
G37*
G36*
X345866Y328377D02*
X345472D01*
Y325787D01*
X349294D01*
X348961Y326590D01*
X348393Y327330D01*
X347653Y327898D01*
X346791Y328255D01*
X345866Y328377D01*
D02*
G37*
G36*
X343504D02*
X343110D01*
X342185Y328255D01*
X341323Y327898D01*
X340583Y327330D01*
X340015Y326590D01*
X339683Y325787D01*
X343504D01*
Y328377D01*
D02*
G37*
G36*
X349294Y323819D02*
X345472D01*
Y321229D01*
X345866D01*
X346791Y321351D01*
X347653Y321708D01*
X348393Y322276D01*
X348961Y323016D01*
X349294Y323819D01*
D02*
G37*
G36*
X343504D02*
X339683D01*
X340015Y323016D01*
X340583Y322276D01*
X341323Y321708D01*
X342185Y321351D01*
X343110Y321229D01*
X343504D01*
Y323819D01*
D02*
G37*
G36*
X412315Y356784D02*
X375685D01*
Y316216D01*
X412315D01*
Y356784D01*
D02*
G37*
G36*
X409465Y277969D02*
X404043D01*
Y274122D01*
X409465D01*
Y277969D01*
D02*
G37*
G36*
X403043D02*
X397622D01*
Y274122D01*
X403043D01*
Y277969D01*
D02*
G37*
G36*
X409465Y273122D02*
X404043D01*
Y269276D01*
X409465D01*
Y273122D01*
D02*
G37*
G36*
X403043D02*
X397622D01*
Y269276D01*
X403043D01*
Y273122D01*
D02*
G37*
G36*
X385827Y289370D02*
X383858Y287402D01*
Y287402D01*
X381890Y285433D01*
X391732D01*
X389764Y287402D01*
X383858D01*
X385827Y289370D01*
Y289370D01*
D02*
G37*
%LPD*%
D13*
X380221Y295161D02*
D03*
X387110D02*
D03*
X394000D02*
D03*
X400890D02*
D03*
X407780D02*
D03*
D14*
X394000Y336500D02*
D03*
D15*
X427165Y353839D02*
D03*
Y346949D02*
D03*
Y336122D02*
D03*
Y329232D02*
D03*
D16*
X467913Y291339D02*
D03*
X429724D02*
D03*
D17*
X387795Y273622D02*
D03*
X403543D02*
D03*
D25*
X400890Y295161D02*
Y302465D01*
X405512Y307087D01*
X413386D02*
X417323Y311024D01*
X405512Y307087D02*
X413386D01*
X417323Y311024D02*
Y332677D01*
X420669Y336024D01*
X427067D02*
X427165Y336122D01*
X420669Y336024D02*
X427067D01*
X427165Y336122D02*
Y346949D01*
D26*
X344488Y354331D02*
D03*
X492126D02*
D03*
Y275590D02*
D03*
X344488D02*
D03*
D27*
X456693Y333661D02*
D03*
Y347441D02*
D03*
X344488Y324803D02*
D03*
Y305118D02*
D03*
D28*
X496063Y342520D02*
D03*
X484252D02*
D03*
X478346Y354331D02*
D03*
X466535D02*
D03*
X460630Y271654D02*
D03*
X454724Y354331D02*
D03*
X448819Y342520D02*
D03*
Y271654D02*
D03*
X442913Y354331D02*
D03*
X437008Y342520D02*
D03*
X442913Y283465D02*
D03*
X437008Y271654D02*
D03*
X425197Y318898D02*
D03*
X431102Y307086D02*
D03*
X425197Y271654D02*
D03*
X419291Y354331D02*
D03*
X413386Y295275D02*
D03*
Y271654D02*
D03*
X395669Y307086D02*
D03*
X383858D02*
D03*
X372047Y354331D02*
D03*
X366142Y342520D02*
D03*
X372047Y330709D02*
D03*
X366142Y318898D02*
D03*
Y271654D02*
D03*
X360236Y354331D02*
D03*
X354331Y342520D02*
D03*
X360236Y330709D02*
D03*
X354331Y318898D02*
D03*
X342520Y342520D02*
D03*
X348425Y330709D02*
D03*
X342520Y318898D02*
D03*
X330709Y342520D02*
D03*
X336614Y330709D02*
D03*
X330709Y318898D02*
D03*
M02*
