G04*
G04 #@! TF.GenerationSoftware,Altium Limited,Altium Designer,21.6.1 (37)*
G04*
G04 Layer_Color=1930808*
%FSLAX25Y25*%
%MOIN*%
G70*
G04*
G04 #@! TF.SameCoordinates,DC8E1805-1AE0-4662-A60C-033F26306971*
G04*
G04*
G04 #@! TF.FilePolarity,Positive*
G04*
G01*
G75*
%ADD10C,0.00787*%
%ADD29C,0.00394*%
%ADD31C,0.00197*%
D10*
X370378Y361106D02*
X418606D01*
Y283350D02*
Y361106D01*
X369394Y283350D02*
X418606D01*
X369394D02*
Y361106D01*
X372346D01*
X394000Y317799D02*
Y335516D01*
X385142Y326658D02*
X402858D01*
D29*
X427165Y348425D02*
Y352362D01*
X425197Y350394D02*
X429134D01*
X427165Y330709D02*
Y334646D01*
X425197Y332677D02*
X429134D01*
X448819Y289370D02*
Y293307D01*
X446850Y291339D02*
X450787D01*
X395669Y271654D02*
Y275591D01*
X393701Y273622D02*
X397638D01*
X456693Y335630D02*
Y340551D01*
X451772D02*
X456693D01*
Y345472D01*
Y340551D02*
X461614D01*
X344488Y314961D02*
X349410D01*
X344488D02*
Y319882D01*
X339567Y314961D02*
X344488D01*
Y310039D02*
Y314961D01*
D31*
X423425Y357087D02*
X430905D01*
X423425Y343701D02*
X430905D01*
Y357087D01*
X423425Y343701D02*
Y357087D01*
Y339370D02*
X430905D01*
X423425Y325984D02*
X430905D01*
Y339370D01*
X423425Y325984D02*
Y339370D01*
X420374Y265158D02*
X477264D01*
X420374Y317520D02*
X477264D01*
Y265158D02*
Y317520D01*
X420374Y265158D02*
Y317520D01*
X381669Y280512D02*
X409669D01*
X381669Y266732D02*
X409669D01*
X381669D02*
Y280512D01*
X409669Y266732D02*
Y280512D01*
X440158Y324016D02*
Y357087D01*
Y324016D02*
X473228D01*
Y357087D01*
X440158D02*
X473228D01*
X324016Y335433D02*
X364961D01*
Y294488D02*
Y335433D01*
X324016Y294488D02*
X364961D01*
X324016D02*
Y335433D01*
M02*
