M48
;Layer_Color=9474304
;FILE_FORMAT=2:5
INCH,TZ
;TYPE=PLATED
T1F00S00C0.01181
T2F00S00C0.03150
T3F00S00C0.07874
%
T01
X366142Y271654
X413386
X425197
X437008
X448819
X460630
X442913Y283465
X431102Y307086
X413386Y295275
X395669Y307086
X383858
X366142Y318898
X354331
X342520
X330709
X336614Y330709
X348425
X360236
X372047
X366142Y342520
X354331
X342520
X330709
X360236Y354331
X372047
X419291
X442913
X454724
X466535
X448819Y342520
X437008
X425197Y318898
X484252Y342520
X496063
X478346Y354331
T02
X344488Y305118
Y324803
X456693Y333661
Y347441
T03
X492126Y275590
X344488
Y354331
X492126
M30
