G04*
G04 #@! TF.GenerationSoftware,Altium Limited,Altium Designer,21.6.1 (37)*
G04*
G04 Layer_Color=65535*
%FSLAX25Y25*%
%MOIN*%
G70*
G04*
G04 #@! TF.SameCoordinates,DC8E1805-1AE0-4662-A60C-033F26306971*
G04*
G04*
G04 #@! TF.FilePolarity,Positive*
G04*
G01*
G75*
%ADD10C,0.00787*%
%ADD11C,0.00591*%
%ADD12C,0.01000*%
G36*
X336169Y332801D02*
X337143Y333256D01*
X339178Y333946D01*
X341277Y334412D01*
X343413Y334646D01*
X345563D01*
X347700Y334412D01*
X349798Y333946D01*
X351833Y333256D01*
X352807Y332801D01*
Y332801D01*
X336169Y332801D01*
D02*
G37*
G36*
X450037Y354824D02*
X450817Y355187D01*
X452445Y355740D01*
X454124Y356112D01*
X455833Y356299D01*
X457553D01*
X459262Y356112D01*
X460941Y355740D01*
X462569Y355187D01*
X463348Y354824D01*
Y354824D01*
X450037Y354824D01*
D02*
G37*
G36*
X490614Y342856D02*
X496909D01*
Y341322D01*
X490614D01*
Y339097D01*
X489334D01*
Y345081D01*
X490614D01*
Y342856D01*
D02*
G37*
G36*
X493784Y338002D02*
X493923D01*
X494072D01*
X494395Y337979D01*
X494707Y337956D01*
X494857Y337944D01*
X495006Y337933D01*
X495133Y337910D01*
X495249Y337887D01*
X495260D01*
X495272D01*
X495341Y337863D01*
X495445Y337829D01*
X495583Y337783D01*
X495733Y337714D01*
X495894Y337644D01*
X496056Y337541D01*
X496206Y337425D01*
X496217Y337414D01*
X496275Y337368D01*
X496344Y337287D01*
X496425Y337195D01*
X496528Y337056D01*
X496632Y336906D01*
X496736Y336734D01*
X496828Y336538D01*
Y336526D01*
X496840Y336514D01*
X496851Y336480D01*
X496863Y336434D01*
X496874Y336388D01*
X496897Y336318D01*
X496932Y336145D01*
X496978Y335938D01*
X497013Y335696D01*
X497036Y335407D01*
X497047Y335085D01*
Y334912D01*
X497036Y334820D01*
Y334716D01*
X497013Y334474D01*
X496990Y334208D01*
X496944Y333943D01*
X496886Y333678D01*
X496851Y333563D01*
X496805Y333447D01*
Y333436D01*
X496794Y333424D01*
X496759Y333355D01*
X496701Y333251D01*
X496632Y333125D01*
X496528Y332986D01*
X496425Y332836D01*
X496286Y332698D01*
X496148Y332560D01*
X496125Y332548D01*
X496079Y332513D01*
X495998Y332456D01*
X495894Y332387D01*
X495767Y332317D01*
X495617Y332248D01*
X495468Y332179D01*
X495306Y332133D01*
X495295D01*
X495272D01*
X495237Y332121D01*
X495179Y332110D01*
X495122Y332098D01*
X495029Y332087D01*
X494937Y332075D01*
X494822Y332064D01*
X494695Y332052D01*
X494557Y332041D01*
X494395Y332029D01*
X494222Y332018D01*
X494038Y332006D01*
X493830D01*
X493611Y331995D01*
X493381D01*
X489334D01*
Y333528D01*
X493450D01*
X493461D01*
X493496D01*
X493542D01*
X493611D01*
X493680D01*
X493773D01*
X493980Y333540D01*
X494188D01*
X494395Y333551D01*
X494580Y333563D01*
X494661D01*
X494718Y333574D01*
X494741D01*
X494799Y333597D01*
X494880Y333632D01*
X494983Y333666D01*
X495110Y333736D01*
X495237Y333816D01*
X495352Y333909D01*
X495468Y334035D01*
X495479Y334058D01*
X495514Y334105D01*
X495560Y334185D01*
X495606Y334301D01*
X495652Y334439D01*
X495698Y334612D01*
X495733Y334820D01*
X495744Y335039D01*
Y335142D01*
X495733Y335258D01*
X495710Y335407D01*
X495675Y335557D01*
X495629Y335719D01*
X495571Y335869D01*
X495479Y336007D01*
X495468Y336019D01*
X495433Y336065D01*
X495375Y336122D01*
X495295Y336180D01*
X495202Y336249D01*
X495099Y336318D01*
X494972Y336376D01*
X494834Y336411D01*
X494810D01*
X494753Y336422D01*
X494661Y336434D01*
X494522Y336445D01*
X494349Y336457D01*
X494119Y336468D01*
X493992D01*
X493853Y336480D01*
X493704D01*
X493542D01*
X489334D01*
Y338013D01*
X493323D01*
X493335D01*
X493381D01*
X493450D01*
X493542D01*
X493657D01*
X493784Y338002D01*
D02*
G37*
G36*
X493312Y330784D02*
X493438D01*
X493600Y330761D01*
X493773Y330738D01*
X493980Y330715D01*
X494188Y330669D01*
X494418Y330623D01*
X494649Y330553D01*
X494891Y330473D01*
X495133Y330369D01*
X495364Y330254D01*
X495595Y330127D01*
X495814Y329965D01*
X496021Y329792D01*
X496033Y329781D01*
X496067Y329746D01*
X496113Y329689D01*
X496182Y329608D01*
X496263Y329516D01*
X496344Y329389D01*
X496436Y329251D01*
X496528Y329089D01*
X496632Y328905D01*
X496724Y328709D01*
X496805Y328489D01*
X496886Y328247D01*
X496955Y327994D01*
X497001Y327729D01*
X497036Y327440D01*
X497047Y327129D01*
Y327060D01*
X497036Y326968D01*
Y326852D01*
X497013Y326714D01*
X496990Y326541D01*
X496967Y326357D01*
X496920Y326161D01*
X496863Y325953D01*
X496794Y325734D01*
X496713Y325515D01*
X496609Y325296D01*
X496494Y325065D01*
X496355Y324858D01*
X496206Y324650D01*
X496021Y324454D01*
X496009Y324443D01*
X495975Y324408D01*
X495917Y324362D01*
X495837Y324304D01*
X495733Y324223D01*
X495606Y324143D01*
X495456Y324050D01*
X495283Y323958D01*
X495087Y323866D01*
X494880Y323774D01*
X494649Y323693D01*
X494395Y323612D01*
X494119Y323555D01*
X493830Y323509D01*
X493519Y323474D01*
X493185Y323462D01*
X493173D01*
X493127D01*
X493069D01*
X492989D01*
X492885Y323474D01*
X492770Y323485D01*
X492643D01*
X492504Y323509D01*
X492193Y323543D01*
X491870Y323601D01*
X491547Y323681D01*
X491236Y323797D01*
X491225D01*
X491213Y323808D01*
X491144Y323843D01*
X491029Y323901D01*
X490890Y323981D01*
X490729Y324085D01*
X490556Y324200D01*
X490371Y324350D01*
X490198Y324500D01*
X490175Y324523D01*
X490118Y324581D01*
X490037Y324673D01*
X489945Y324788D01*
X489829Y324938D01*
X489714Y325100D01*
X489610Y325284D01*
X489518Y325480D01*
Y325492D01*
X489507Y325515D01*
X489484Y325549D01*
X489472Y325607D01*
X489449Y325676D01*
X489414Y325757D01*
X489391Y325849D01*
X489357Y325953D01*
X489311Y326195D01*
X489253Y326472D01*
X489218Y326783D01*
X489207Y327117D01*
Y327187D01*
X489218Y327279D01*
Y327394D01*
X489241Y327533D01*
X489264Y327694D01*
X489299Y327878D01*
X489334Y328074D01*
X489391Y328293D01*
X489461Y328501D01*
X489553Y328732D01*
X489645Y328951D01*
X489772Y329170D01*
X489910Y329389D01*
X490072Y329596D01*
X490256Y329792D01*
X490268Y329804D01*
X490302Y329838D01*
X490360Y329885D01*
X490452Y329954D01*
X490556Y330023D01*
X490683Y330115D01*
X490833Y330196D01*
X491006Y330300D01*
X491201Y330392D01*
X491421Y330484D01*
X491651Y330565D01*
X491905Y330634D01*
X492182Y330703D01*
X492481Y330749D01*
X492804Y330784D01*
X493139Y330796D01*
X493162D01*
X493219D01*
X493312Y330784D01*
D02*
G37*
G36*
X496909Y320303D02*
Y318654D01*
X489334Y315945D01*
Y317594D01*
X494937Y319519D01*
X489334Y321364D01*
Y323001D01*
X496909Y320303D01*
D02*
G37*
G36*
X493438Y309839D02*
X493531D01*
X493750Y309816D01*
X494003Y309793D01*
X494269Y309747D01*
X494545Y309689D01*
X494810Y309608D01*
X494822D01*
X494845Y309597D01*
X494891Y309585D01*
X494949Y309562D01*
X495018Y309528D01*
X495099Y309493D01*
X495283Y309401D01*
X495502Y309285D01*
X495721Y309147D01*
X495940Y308986D01*
X496148Y308801D01*
X496159Y308778D01*
X496217Y308732D01*
X496286Y308640D01*
X496367Y308524D01*
X496471Y308363D01*
X496574Y308179D01*
X496667Y307971D01*
X496759Y307729D01*
X496770Y307706D01*
X496782Y307637D01*
X496805Y307533D01*
X496828Y307371D01*
X496863Y307187D01*
X496886Y306956D01*
X496897Y306680D01*
X496909Y306380D01*
Y303520D01*
X489334D01*
Y306530D01*
X489345Y306622D01*
X489357Y306830D01*
X489368Y307072D01*
X489391Y307302D01*
X489437Y307533D01*
X489484Y307740D01*
Y307752D01*
X489495Y307775D01*
X489507Y307810D01*
X489518Y307856D01*
X489576Y307971D01*
X489645Y308133D01*
X489737Y308306D01*
X489864Y308490D01*
X490014Y308686D01*
X490187Y308870D01*
Y308882D01*
X490210Y308893D01*
X490279Y308951D01*
X490383Y309032D01*
X490521Y309147D01*
X490706Y309262D01*
X490913Y309378D01*
X491144Y309493D01*
X491409Y309597D01*
X491421D01*
X491444Y309608D01*
X491478Y309620D01*
X491536Y309631D01*
X491605Y309654D01*
X491697Y309678D01*
X491790Y309701D01*
X491905Y309724D01*
X492032Y309747D01*
X492159Y309770D01*
X492470Y309816D01*
X492816Y309839D01*
X493196Y309851D01*
X493208D01*
X493242D01*
X493289D01*
X493358D01*
X493438Y309839D01*
D02*
G37*
G36*
X496909Y300373D02*
X491939Y297306D01*
X496909D01*
Y295888D01*
X489334D01*
Y297363D01*
X494418Y300488D01*
X489334D01*
Y301906D01*
X496909D01*
Y300373D01*
D02*
G37*
G36*
X495906Y294446D02*
X495963Y294377D01*
X496044Y294273D01*
X496159Y294112D01*
X496286Y293916D01*
X496425Y293674D01*
X496563Y293397D01*
X496701Y293074D01*
Y293063D01*
X496713Y293028D01*
X496736Y292982D01*
X496759Y292913D01*
X496782Y292832D01*
X496805Y292740D01*
X496840Y292625D01*
X496874Y292498D01*
X496932Y292221D01*
X496990Y291910D01*
X497036Y291575D01*
X497047Y291230D01*
Y291114D01*
X497036Y291034D01*
Y290930D01*
X497024Y290803D01*
X497001Y290676D01*
X496990Y290526D01*
X496920Y290203D01*
X496840Y289858D01*
X496713Y289500D01*
X496644Y289327D01*
X496552Y289154D01*
X496540Y289143D01*
X496528Y289120D01*
X496494Y289073D01*
X496459Y289016D01*
X496413Y288935D01*
X496344Y288854D01*
X496182Y288658D01*
X495987Y288451D01*
X495744Y288232D01*
X495456Y288024D01*
X495133Y287840D01*
X495122D01*
X495087Y287817D01*
X495041Y287805D01*
X494972Y287771D01*
X494880Y287736D01*
X494776Y287701D01*
X494661Y287667D01*
X494534Y287621D01*
X494384Y287575D01*
X494222Y287540D01*
X493888Y287471D01*
X493507Y287425D01*
X493104Y287402D01*
X493092D01*
X493046D01*
X492989D01*
X492908Y287413D01*
X492804D01*
X492677Y287425D01*
X492551Y287448D01*
X492401Y287459D01*
X492078Y287517D01*
X491720Y287609D01*
X491363Y287724D01*
X491006Y287886D01*
X490994Y287897D01*
X490959Y287909D01*
X490913Y287944D01*
X490856Y287978D01*
X490775Y288036D01*
X490683Y288093D01*
X490487Y288255D01*
X490256Y288462D01*
X490014Y288704D01*
X489795Y289004D01*
X489587Y289339D01*
Y289350D01*
X489576Y289373D01*
X489553Y289408D01*
X489530Y289465D01*
X489495Y289546D01*
X489472Y289627D01*
X489437Y289731D01*
X489391Y289834D01*
X489357Y289961D01*
X489322Y290100D01*
X489299Y290249D01*
X489264Y290411D01*
X489218Y290757D01*
X489207Y291149D01*
Y291287D01*
X489218Y291379D01*
X489230Y291495D01*
X489241Y291633D01*
X489253Y291783D01*
X489276Y291956D01*
X489357Y292302D01*
X489461Y292671D01*
X489530Y292844D01*
X489610Y293017D01*
X489703Y293190D01*
X489806Y293339D01*
X489818Y293351D01*
X489829Y293374D01*
X489864Y293420D01*
X489910Y293466D01*
X489979Y293535D01*
X490049Y293605D01*
X490129Y293685D01*
X490233Y293766D01*
X490337Y293858D01*
X490464Y293939D01*
X490590Y294031D01*
X490740Y294112D01*
X491052Y294250D01*
X491236Y294320D01*
X491421Y294366D01*
X491709Y292844D01*
X491697D01*
X491686Y292832D01*
X491617Y292809D01*
X491513Y292775D01*
X491386Y292705D01*
X491248Y292625D01*
X491109Y292521D01*
X490959Y292394D01*
X490833Y292244D01*
X490821Y292221D01*
X490786Y292163D01*
X490729Y292071D01*
X490671Y291944D01*
X490614Y291783D01*
X490556Y291599D01*
X490521Y291379D01*
X490510Y291149D01*
Y291057D01*
X490521Y290987D01*
X490533Y290895D01*
X490544Y290803D01*
X490590Y290572D01*
X490671Y290319D01*
X490786Y290054D01*
X490856Y289927D01*
X490936Y289800D01*
X491040Y289673D01*
X491155Y289558D01*
X491167Y289546D01*
X491190Y289535D01*
X491225Y289500D01*
X491271Y289465D01*
X491340Y289419D01*
X491421Y289373D01*
X491513Y289327D01*
X491628Y289269D01*
X491755Y289212D01*
X491893Y289166D01*
X492055Y289120D01*
X492216Y289073D01*
X492401Y289039D01*
X492608Y289004D01*
X492816Y288993D01*
X493046Y288981D01*
X493058D01*
X493104D01*
X493173D01*
X493265Y288993D01*
X493381Y289004D01*
X493507Y289016D01*
X493646Y289027D01*
X493807Y289050D01*
X494130Y289120D01*
X494476Y289235D01*
X494637Y289293D01*
X494787Y289373D01*
X494937Y289465D01*
X495076Y289569D01*
X495087Y289581D01*
X495099Y289592D01*
X495133Y289627D01*
X495179Y289673D01*
X495225Y289742D01*
X495283Y289811D01*
X495352Y289892D01*
X495410Y289996D01*
X495537Y290215D01*
X495641Y290480D01*
X495687Y290630D01*
X495710Y290791D01*
X495733Y290964D01*
X495744Y291137D01*
Y291218D01*
X495733Y291310D01*
X495721Y291437D01*
X495698Y291575D01*
X495664Y291737D01*
X495617Y291910D01*
X495560Y292094D01*
X495548Y292117D01*
X495525Y292175D01*
X495491Y292267D01*
X495433Y292383D01*
X495364Y292509D01*
X495283Y292648D01*
X495202Y292786D01*
X495099Y292924D01*
X494130D01*
Y291183D01*
X492850D01*
Y294469D01*
X495883D01*
X495906Y294446D01*
D02*
G37*
G36*
X361554Y284437D02*
X361623D01*
X361807Y284426D01*
X362015Y284391D01*
X362246Y284357D01*
X362476Y284299D01*
X362707Y284230D01*
X362718D01*
X362730Y284218D01*
X362764Y284207D01*
X362810Y284184D01*
X362914Y284138D01*
X363064Y284057D01*
X363214Y283976D01*
X363387Y283861D01*
X363560Y283734D01*
X363721Y283584D01*
X363744Y283561D01*
X363791Y283515D01*
X363860Y283423D01*
X363952Y283307D01*
X364056Y283157D01*
X364159Y282984D01*
X364263Y282788D01*
X364356Y282581D01*
Y282569D01*
X364367Y282558D01*
X364379Y282523D01*
X364390Y282477D01*
X364425Y282362D01*
X364471Y282201D01*
X364517Y282004D01*
X364552Y281774D01*
X364575Y281532D01*
X364586Y281266D01*
Y281128D01*
X364575Y281024D01*
Y280921D01*
X364563Y280794D01*
X364528Y280552D01*
Y280540D01*
X364517Y280494D01*
X364506Y280436D01*
X364494Y280356D01*
X364448Y280171D01*
X364390Y279987D01*
Y279975D01*
X364379Y279941D01*
X364367Y279894D01*
X364344Y279837D01*
X364298Y279698D01*
X364229Y279572D01*
Y279560D01*
X364217Y279549D01*
X364171Y279479D01*
X364125Y279410D01*
X364067Y279352D01*
X364056Y279341D01*
X364021Y279318D01*
X363964Y279283D01*
X363883Y279260D01*
X363860Y279249D01*
X363791Y279237D01*
X363744D01*
X363687Y279226D01*
X363606D01*
X363525D01*
X363514D01*
X363502D01*
X363445D01*
X363364Y279237D01*
X363283Y279249D01*
X363272D01*
X363226Y279260D01*
X363179Y279272D01*
X363133Y279283D01*
X363122D01*
X363099Y279295D01*
X363076Y279306D01*
X363053Y279329D01*
X363041Y279352D01*
X363030Y279399D01*
Y279410D01*
X363041Y279445D01*
X363064Y279514D01*
X363110Y279606D01*
X363122Y279629D01*
X363168Y279698D01*
X363226Y279814D01*
X363295Y279964D01*
Y279975D01*
X363318Y280010D01*
X363329Y280056D01*
X363352Y280114D01*
X363387Y280194D01*
X363422Y280287D01*
X363479Y280505D01*
Y280517D01*
X363491Y280563D01*
X363514Y280621D01*
X363525Y280713D01*
X363548Y280817D01*
X363560Y280944D01*
X363572Y281082D01*
Y281301D01*
X363560Y281393D01*
X363548Y281497D01*
X363537Y281624D01*
X363502Y281762D01*
X363468Y281901D01*
X363410Y282039D01*
X363399Y282051D01*
X363387Y282097D01*
X363352Y282166D01*
X363295Y282247D01*
X363237Y282350D01*
X363168Y282443D01*
X363076Y282546D01*
X362972Y282650D01*
X362960Y282662D01*
X362926Y282696D01*
X362868Y282742D01*
X362788Y282788D01*
X362684Y282858D01*
X362568Y282927D01*
X362442Y282984D01*
X362303Y283042D01*
X362280D01*
X362234Y283065D01*
X362153Y283077D01*
X362050Y283100D01*
X361923Y283123D01*
X361773Y283146D01*
X361611Y283157D01*
X361438Y283169D01*
X361415D01*
X361346D01*
X361254Y283157D01*
X361127Y283146D01*
X360977Y283134D01*
X360816Y283111D01*
X360666Y283077D01*
X360505Y283031D01*
X360493Y283019D01*
X360435Y283008D01*
X360366Y282973D01*
X360274Y282927D01*
X360170Y282881D01*
X360055Y282811D01*
X359836Y282650D01*
X359824Y282639D01*
X359790Y282604D01*
X359744Y282546D01*
X359686Y282477D01*
X359617Y282397D01*
X359559Y282293D01*
X359490Y282177D01*
X359432Y282051D01*
Y282039D01*
X359409Y281993D01*
X359398Y281912D01*
X359375Y281820D01*
X359351Y281705D01*
X359329Y281566D01*
X359317Y281428D01*
X359305Y281266D01*
Y281186D01*
X359317Y281140D01*
X359329Y281013D01*
X359351Y280863D01*
Y280851D01*
X359363Y280828D01*
X359375Y280782D01*
X359386Y280736D01*
X359432Y280609D01*
X359490Y280471D01*
X360897D01*
Y281647D01*
X360908Y281682D01*
X360943Y281728D01*
X361000Y281762D01*
X361023Y281774D01*
X361047D01*
X361081Y281785D01*
X361139Y281797D01*
X361196D01*
X361265Y281808D01*
X361358D01*
X361369D01*
X361381D01*
X361438D01*
X361508D01*
X361577Y281797D01*
X361588D01*
X361634Y281785D01*
X361681Y281774D01*
X361727Y281762D01*
X361738D01*
X361761Y281751D01*
X361784Y281728D01*
X361807Y281716D01*
X361819Y281705D01*
X361830Y281693D01*
X361842Y281670D01*
Y279525D01*
X361830Y279491D01*
X361807Y279445D01*
Y279433D01*
X361784Y279410D01*
X361761Y279376D01*
X361727Y279341D01*
X361715Y279329D01*
X361692Y279318D01*
X361658Y279295D01*
X361600Y279272D01*
X361588Y279260D01*
X361554Y279249D01*
X361508Y279237D01*
X361438D01*
X359017D01*
X359006D01*
X358994D01*
X358925Y279249D01*
X358844Y279260D01*
X358764Y279295D01*
X358752Y279306D01*
X358706Y279341D01*
X358648Y279399D01*
X358591Y279502D01*
Y279514D01*
X358579Y279525D01*
X358568Y279560D01*
X358556Y279606D01*
X358510Y279721D01*
X358464Y279883D01*
Y279894D01*
X358452Y279918D01*
X358441Y279964D01*
X358429Y280021D01*
X358406Y280171D01*
X358371Y280344D01*
Y280356D01*
X358360Y280390D01*
Y280436D01*
X358348Y280494D01*
X358337Y280575D01*
X358325Y280655D01*
X358302Y280840D01*
Y280886D01*
X358291Y280932D01*
Y280990D01*
X358279Y281070D01*
Y281151D01*
X358268Y281336D01*
Y281463D01*
X358279Y281520D01*
Y281601D01*
X358291Y281774D01*
X358314Y281981D01*
X358360Y282201D01*
X358406Y282431D01*
X358475Y282650D01*
Y282662D01*
X358487Y282673D01*
X358510Y282742D01*
X358568Y282858D01*
X358625Y282984D01*
X358717Y283146D01*
X358821Y283307D01*
X358937Y283469D01*
X359075Y283630D01*
X359098Y283653D01*
X359144Y283699D01*
X359236Y283769D01*
X359351Y283861D01*
X359490Y283953D01*
X359663Y284057D01*
X359847Y284161D01*
X360055Y284241D01*
X360066D01*
X360078Y284253D01*
X360113Y284264D01*
X360159Y284276D01*
X360274Y284310D01*
X360435Y284345D01*
X360631Y284380D01*
X360850Y284414D01*
X361093Y284437D01*
X361358Y284449D01*
X361369D01*
X361392D01*
X361427D01*
X361485D01*
X361554Y284437D01*
D02*
G37*
G36*
X364113Y277946D02*
X364159D01*
X364263Y277900D01*
X364321Y277877D01*
X364367Y277831D01*
Y277819D01*
X364390Y277807D01*
X364425Y277738D01*
X364459Y277646D01*
X364482Y277508D01*
Y276747D01*
X364471Y276643D01*
X364448Y276551D01*
Y276539D01*
X364436Y276528D01*
X364425Y276470D01*
X364390Y276401D01*
X364344Y276332D01*
X364333Y276309D01*
X364298Y276274D01*
X364229Y276205D01*
X364148Y276147D01*
X364125Y276136D01*
X364067Y276090D01*
X363964Y276032D01*
X363837Y275963D01*
X361600Y274775D01*
X361588D01*
X361565Y274752D01*
X361531Y274741D01*
X361473Y274706D01*
X361358Y274648D01*
X361208Y274579D01*
X361196D01*
X361173Y274556D01*
X361139Y274545D01*
X361081Y274510D01*
X360966Y274452D01*
X360816Y274383D01*
X360804D01*
X360781Y274360D01*
X360747Y274348D01*
X360689Y274325D01*
X360574Y274256D01*
X360424Y274199D01*
X360412D01*
X360389Y274187D01*
X360355Y274164D01*
X360309Y274141D01*
X360193Y274083D01*
X360055Y274014D01*
X360066D01*
X360113D01*
X360182D01*
X360262Y274026D01*
X360366D01*
X360482D01*
X360735Y274037D01*
X360747D01*
X360793D01*
X360874D01*
X360966D01*
X361069D01*
X361185D01*
X361427D01*
X364298D01*
X364309D01*
X364321D01*
X364379Y274014D01*
X364390D01*
X364402Y273991D01*
X364425Y273968D01*
X364448Y273922D01*
Y273910D01*
X364459Y273876D01*
X364471Y273818D01*
X364482Y273749D01*
Y273726D01*
X364494Y273668D01*
X364506Y273587D01*
Y273380D01*
X364494Y273288D01*
X364482Y273207D01*
Y273184D01*
X364471Y273138D01*
X364459Y273080D01*
X364448Y273034D01*
Y273023D01*
X364436Y273000D01*
X364413Y272976D01*
X364379Y272953D01*
Y272942D01*
X364356Y272930D01*
X364333Y272919D01*
X364298D01*
X358798D01*
X358787D01*
X358740D01*
X358671Y272942D01*
X358602Y272965D01*
X358591Y272976D01*
X358556Y272988D01*
X358510Y273023D01*
X358464Y273069D01*
X358452Y273080D01*
X358429Y273103D01*
X358406Y273161D01*
X358383Y273219D01*
Y273230D01*
X358371Y273265D01*
X358360Y273322D01*
Y274014D01*
X358371Y274106D01*
X358383Y274210D01*
X358395Y274233D01*
X358418Y274279D01*
X358452Y274348D01*
X358510Y274429D01*
X358521Y274441D01*
X358579Y274487D01*
X358648Y274556D01*
X358752Y274625D01*
X358764D01*
X358775Y274637D01*
X358810Y274660D01*
X358856Y274683D01*
X358971Y274752D01*
X359133Y274833D01*
X361992Y276355D01*
X362003D01*
X362038Y276378D01*
X362084Y276401D01*
X362153Y276435D01*
X362234Y276470D01*
X362326Y276516D01*
X362534Y276620D01*
X362545Y276631D01*
X362580Y276643D01*
X362649Y276666D01*
X362718Y276701D01*
X362810Y276735D01*
X362914Y276781D01*
X363122Y276862D01*
Y276874D01*
X363110D01*
X363064D01*
X362995D01*
X362903Y276862D01*
X362799D01*
X362684D01*
X362430Y276851D01*
X362419D01*
X362372D01*
X362303D01*
X362223Y276839D01*
X362119D01*
X361992D01*
X361738D01*
X358544D01*
X358533D01*
X358521D01*
X358487Y276851D01*
X358452Y276874D01*
X358429Y276897D01*
X358418Y276920D01*
X358395Y276966D01*
Y276977D01*
X358383Y277012D01*
X358371Y277058D01*
X358360Y277139D01*
Y277208D01*
X358348Y277300D01*
Y277600D01*
X358360Y277692D01*
Y277704D01*
X358371Y277750D01*
X358383Y277807D01*
X358395Y277854D01*
Y277865D01*
X358406Y277888D01*
X358429Y277911D01*
X358452Y277934D01*
X358464D01*
X358487Y277946D01*
X358544Y277957D01*
X364033D01*
X364044D01*
X364067D01*
X364113Y277946D01*
D02*
G37*
G36*
X364159Y271570D02*
X364206D01*
X364309Y271535D01*
X364390Y271478D01*
X364402Y271455D01*
X364436Y271408D01*
X364471Y271328D01*
X364482Y271224D01*
Y269448D01*
X364471Y269368D01*
X364459Y269172D01*
X364436Y268952D01*
X364402Y268722D01*
X364356Y268491D01*
X364286Y268272D01*
Y268261D01*
X364275Y268249D01*
X364252Y268180D01*
X364206Y268065D01*
X364137Y267938D01*
X364056Y267788D01*
X363964Y267627D01*
X363848Y267465D01*
X363710Y267315D01*
X363698Y267292D01*
X363641Y267246D01*
X363560Y267177D01*
X363456Y267096D01*
X363318Y266992D01*
X363168Y266900D01*
X362983Y266796D01*
X362788Y266716D01*
X362776D01*
X362764Y266704D01*
X362730Y266693D01*
X362695Y266681D01*
X362580Y266647D01*
X362419Y266612D01*
X362234Y266577D01*
X362015Y266543D01*
X361773Y266520D01*
X361508Y266508D01*
X361496D01*
X361473D01*
X361427D01*
X361369D01*
X361300Y266520D01*
X361208D01*
X361012Y266531D01*
X360781Y266566D01*
X360551Y266600D01*
X360297Y266658D01*
X360066Y266739D01*
X360055D01*
X360043Y266750D01*
X359974Y266773D01*
X359859Y266831D01*
X359720Y266900D01*
X359571Y266992D01*
X359409Y267096D01*
X359248Y267223D01*
X359098Y267373D01*
X359086Y267396D01*
X359040Y267442D01*
X358971Y267534D01*
X358890Y267650D01*
X358798Y267788D01*
X358706Y267961D01*
X358614Y268157D01*
X358544Y268364D01*
Y268376D01*
X358533Y268388D01*
Y268422D01*
X358521Y268468D01*
X358510Y268526D01*
X358487Y268595D01*
X358464Y268757D01*
X358429Y268964D01*
X358395Y269206D01*
X358383Y269471D01*
X358371Y269760D01*
Y271247D01*
X358383Y271316D01*
X358406Y271397D01*
X358452Y271478D01*
X358475Y271489D01*
X358521Y271524D01*
X358625Y271570D01*
X358683Y271581D01*
X358764D01*
X364090D01*
X364102D01*
X364125D01*
X364159Y271570D01*
D02*
G37*
G36*
X359332Y365146D02*
X359343D01*
X359389Y365134D01*
X359424Y365123D01*
X359470Y365111D01*
X359482D01*
X359505Y365100D01*
X359528Y365077D01*
X359551Y365054D01*
X359562Y365042D01*
X359574Y365031D01*
X359585Y365008D01*
Y363486D01*
X361176D01*
X361188D01*
X361211D01*
X361269Y363463D01*
X361280D01*
X361292Y363439D01*
X361315Y363416D01*
X361338Y363382D01*
Y363370D01*
X361349Y363336D01*
X361361Y363290D01*
X361372Y363232D01*
Y363220D01*
X361384Y363163D01*
X361396Y363094D01*
Y362909D01*
X361384Y362828D01*
X361372Y362759D01*
Y362736D01*
X361361Y362702D01*
X361349Y362655D01*
X361338Y362609D01*
Y362598D01*
X361326Y362575D01*
X361303Y362552D01*
X361269Y362529D01*
X361257Y362517D01*
X361246Y362506D01*
X361211Y362494D01*
X361176D01*
X359585D01*
Y360995D01*
X359574Y360972D01*
X359551Y360949D01*
Y360938D01*
X359528Y360926D01*
X359505Y360903D01*
X359470Y360880D01*
X359458D01*
X359435Y360868D01*
X359389Y360857D01*
X359332Y360845D01*
X359320D01*
X359274Y360834D01*
X359205Y360822D01*
X359113D01*
X359089D01*
X359043D01*
X358963Y360834D01*
X358893Y360845D01*
X358882D01*
X358836Y360857D01*
X358790Y360868D01*
X358744Y360891D01*
X358732D01*
X358720Y360903D01*
X358674Y360949D01*
X358663Y360972D01*
X358651Y361030D01*
Y362494D01*
X357049D01*
X357037D01*
X357026D01*
X356991Y362506D01*
X356956Y362529D01*
X356933Y362552D01*
X356922Y362575D01*
X356899Y362609D01*
Y362621D01*
X356887Y362644D01*
X356876Y362690D01*
X356864Y362759D01*
Y362817D01*
X356853Y362898D01*
Y363151D01*
X356864Y363232D01*
Y363244D01*
X356876Y363290D01*
X356887Y363336D01*
X356899Y363382D01*
Y363393D01*
X356910Y363416D01*
X356933Y363439D01*
X356956Y363463D01*
X356968D01*
X356991Y363474D01*
X357049Y363486D01*
X358651D01*
Y364984D01*
X358674Y365042D01*
X358697Y365065D01*
X358744Y365111D01*
X358755D01*
X358790Y365123D01*
X358836Y365134D01*
X358893Y365146D01*
X358905D01*
X358951D01*
X359020Y365158D01*
X359113D01*
X359124D01*
X359136D01*
X359193D01*
X359262D01*
X359332Y365146D01*
D02*
G37*
G36*
X358548Y360396D02*
X358617D01*
X358686Y360384D01*
X358697D01*
X358744Y360372D01*
X358801Y360349D01*
X358859Y360338D01*
X358870Y360326D01*
X358905Y360315D01*
X358963Y360292D01*
X359020Y360257D01*
X362375Y358366D01*
X362387D01*
X362399Y358343D01*
X362422Y358320D01*
X362445Y358286D01*
X362456Y358274D01*
X362468Y358240D01*
X362479Y358193D01*
X362502Y358124D01*
Y358101D01*
X362514Y358055D01*
X362525Y357974D01*
X362537Y357871D01*
Y357813D01*
X362548Y357767D01*
Y357352D01*
X362537Y357213D01*
X362525Y357075D01*
Y357040D01*
X362514Y356971D01*
X362502Y356891D01*
X362491Y356810D01*
Y356787D01*
X362479Y356752D01*
X362456Y356706D01*
X362422Y356660D01*
Y356648D01*
X362399Y356625D01*
X362375Y356614D01*
X362341Y356602D01*
X358663D01*
Y356049D01*
X358651Y356014D01*
X358605Y355980D01*
X358582Y355957D01*
X358536Y355933D01*
X358513Y355922D01*
X358490Y355910D01*
X358444Y355899D01*
X358398D01*
X358329Y355887D01*
X358248Y355876D01*
X358155D01*
X358144D01*
X358121D01*
X358075D01*
X358017Y355887D01*
X357902Y355899D01*
X357787Y355933D01*
X357764Y355945D01*
X357729Y355968D01*
X357694Y356003D01*
X357671Y356060D01*
Y356602D01*
X356564D01*
X356553D01*
X356541D01*
X356507Y356614D01*
X356484Y356637D01*
X356461Y356660D01*
X356449Y356695D01*
X356426Y356741D01*
Y356752D01*
X356415Y356787D01*
X356403Y356844D01*
X356391Y356925D01*
Y356994D01*
X356380Y357086D01*
Y357409D01*
X356391Y357502D01*
Y357525D01*
X356403Y357571D01*
X356415Y357628D01*
X356426Y357686D01*
Y357698D01*
X356438Y357721D01*
X356461Y357755D01*
X356484Y357778D01*
X356495D01*
X356507Y357790D01*
X356564Y357801D01*
X357671D01*
Y360188D01*
X357683Y360269D01*
Y360280D01*
X357694Y360292D01*
X357717Y360326D01*
X357752Y360349D01*
X357764D01*
X357798Y360372D01*
X357856Y360384D01*
X357925Y360396D01*
X357948D01*
X358006D01*
X358098Y360407D01*
X358225D01*
X358236D01*
X358248D01*
X358317D01*
X358398D01*
X358478D01*
X358501D01*
X358548Y360396D01*
D02*
G37*
G36*
X359701Y355403D02*
X359874D01*
X360081Y355392D01*
X360300Y355368D01*
X360519Y355334D01*
X360750Y355299D01*
X360761D01*
X360773Y355288D01*
X360807D01*
X360854Y355276D01*
X360957Y355253D01*
X361107Y355207D01*
X361257Y355161D01*
X361430Y355092D01*
X361603Y355011D01*
X361764Y354919D01*
X361788Y354907D01*
X361834Y354873D01*
X361903Y354803D01*
X361995Y354723D01*
X362099Y354631D01*
X362203Y354504D01*
X362306Y354365D01*
X362399Y354216D01*
X362410Y354192D01*
X362433Y354135D01*
X362468Y354043D01*
X362514Y353927D01*
X362560Y353777D01*
X362595Y353593D01*
X362618Y353397D01*
X362629Y353178D01*
Y353074D01*
X362618Y352959D01*
X362606Y352809D01*
X362572Y352647D01*
X362537Y352474D01*
X362479Y352302D01*
X362410Y352140D01*
X362399Y352117D01*
X362375Y352071D01*
X362318Y351990D01*
X362249Y351898D01*
X362156Y351794D01*
X362053Y351690D01*
X361926Y351575D01*
X361788Y351483D01*
X361764Y351471D01*
X361718Y351448D01*
X361626Y351402D01*
X361511Y351344D01*
X361372Y351298D01*
X361199Y351241D01*
X361003Y351195D01*
X360796Y351149D01*
X360784D01*
X360773D01*
X360738Y351137D01*
X360692D01*
X360577Y351114D01*
X360415Y351091D01*
X360219Y351079D01*
X360000Y351056D01*
X359747Y351045D01*
X359482D01*
X359470D01*
X359447D01*
X359412D01*
X359355D01*
X359297D01*
X359216Y351056D01*
X359043D01*
X358836Y351079D01*
X358617Y351102D01*
X358386Y351126D01*
X358155Y351172D01*
X358144D01*
X358133D01*
X358098Y351183D01*
X358063Y351195D01*
X357948Y351218D01*
X357810Y351264D01*
X357648Y351310D01*
X357487Y351379D01*
X357314Y351460D01*
X357152Y351552D01*
X357129Y351564D01*
X357083Y351598D01*
X357014Y351656D01*
X356922Y351737D01*
X356818Y351840D01*
X356714Y351956D01*
X356610Y352094D01*
X356518Y352244D01*
X356507Y352267D01*
X356484Y352325D01*
X356449Y352417D01*
X356415Y352532D01*
X356368Y352682D01*
X356334Y352867D01*
X356311Y353074D01*
X356299Y353293D01*
Y353397D01*
X356311Y353512D01*
X356322Y353662D01*
X356345Y353823D01*
X356391Y354008D01*
X356438Y354181D01*
X356507Y354342D01*
X356518Y354365D01*
X356553Y354412D01*
X356599Y354481D01*
X356668Y354573D01*
X356760Y354677D01*
X356864Y354781D01*
X356991Y354896D01*
X357129Y354988D01*
X357152Y354999D01*
X357199Y355023D01*
X357291Y355069D01*
X357406Y355115D01*
X357544Y355172D01*
X357717Y355230D01*
X357902Y355276D01*
X358109Y355322D01*
X358121D01*
X358133D01*
X358167Y355334D01*
X358213D01*
X358340Y355345D01*
X358501Y355368D01*
X358697Y355380D01*
X358916Y355403D01*
X359170Y355415D01*
X359435D01*
X359447D01*
X359470D01*
X359505D01*
X359562D01*
X359620D01*
X359701Y355403D01*
D02*
G37*
G36*
X362422Y350664D02*
X362468Y350630D01*
X362479Y350618D01*
X362491Y350584D01*
X362514Y350526D01*
X362525Y350434D01*
Y350411D01*
X362537Y350376D01*
Y350272D01*
X362548Y350203D01*
Y349799D01*
X362537Y349696D01*
Y349673D01*
X362525Y349627D01*
X362514Y349569D01*
X362502Y349511D01*
Y349500D01*
X362491Y349477D01*
X362468Y349442D01*
X362433Y349419D01*
X362422Y349408D01*
X362399Y349396D01*
X362364Y349384D01*
X362306Y349361D01*
X357602Y347863D01*
X362283Y346410D01*
X362295D01*
X362329Y346398D01*
X362375Y346375D01*
X362410Y346364D01*
X362422Y346352D01*
X362445Y346340D01*
X362468Y346306D01*
X362491Y346260D01*
X362502Y346248D01*
X362514Y346214D01*
X362525Y346145D01*
X362537Y346064D01*
Y346041D01*
X362548Y345972D01*
Y345591D01*
X362537Y345487D01*
X362525Y345384D01*
Y345360D01*
X362514Y345314D01*
X362491Y345257D01*
X362456Y345211D01*
X362445Y345199D01*
X362422Y345187D01*
X362375Y345176D01*
X362306Y345187D01*
X362283D01*
X362237Y345199D01*
X362156Y345222D01*
X362041Y345257D01*
X356622Y347078D01*
X356610D01*
X356576Y347090D01*
X356484Y347148D01*
X356472Y347159D01*
X356461Y347171D01*
X356438Y347205D01*
X356415Y347263D01*
Y347274D01*
X356403Y347321D01*
Y347390D01*
X356391Y347494D01*
Y347597D01*
X356380Y347713D01*
Y348093D01*
X356391Y348208D01*
Y348358D01*
X356403Y348427D01*
Y348531D01*
X356415Y348589D01*
Y348600D01*
X356426Y348623D01*
X356461Y348693D01*
X356472D01*
X356484Y348716D01*
X356530Y348750D01*
X356541D01*
X356564Y348762D01*
X356634Y348785D01*
X362053Y350607D01*
X362064D01*
X362087Y350618D01*
X362156Y350641D01*
X362237Y350664D01*
X362318Y350676D01*
X362341D01*
X362375D01*
X362422Y350664D01*
D02*
G37*
G36*
X393588Y367000D02*
X393680Y366994D01*
X393784Y366974D01*
X393791D01*
X393810Y366967D01*
X393836Y366961D01*
X393869Y366954D01*
X393954Y366935D01*
X394045Y366902D01*
X394052D01*
X394065Y366896D01*
X394091Y366889D01*
X394117Y366876D01*
X394189Y366843D01*
X394261Y366804D01*
X394267D01*
X394274Y366798D01*
X394313Y366772D01*
X394359Y366745D01*
X394391Y366719D01*
X394398Y366713D01*
X394411Y366700D01*
X394431Y366687D01*
X394437Y366667D01*
X394444Y366654D01*
X394457Y366621D01*
Y366615D01*
X394463Y366602D01*
Y366582D01*
X394470Y366556D01*
Y366549D01*
X394476Y366536D01*
Y366510D01*
Y366478D01*
Y366471D01*
Y366445D01*
Y366419D01*
X394470Y366386D01*
Y366380D01*
X394463Y366367D01*
X394450Y366321D01*
Y366314D01*
X394444Y366308D01*
X394424Y366282D01*
X394418D01*
X394391Y366275D01*
X394385D01*
X394365Y366282D01*
X394333Y366295D01*
X394287Y366321D01*
X394274Y366328D01*
X394241Y366354D01*
X394182Y366393D01*
X394111Y366439D01*
X394104D01*
X394091Y366452D01*
X394072Y366465D01*
X394039Y366478D01*
X394000Y366497D01*
X393960Y366517D01*
X393856Y366556D01*
X393849D01*
X393830Y366563D01*
X393797Y366576D01*
X393752Y366582D01*
X393699Y366595D01*
X393640Y366602D01*
X393569Y366608D01*
X393451D01*
X393406Y366602D01*
X393353Y366595D01*
X393288Y366582D01*
X393216Y366569D01*
X393144Y366543D01*
X393072Y366510D01*
X393066Y366504D01*
X393040Y366491D01*
X393007Y366471D01*
X392961Y366445D01*
X392909Y366406D01*
X392857Y366354D01*
X392798Y366301D01*
X392746Y366236D01*
X392739Y366230D01*
X392726Y366203D01*
X392700Y366164D01*
X392674Y366119D01*
X392641Y366053D01*
X392609Y365975D01*
X392576Y365890D01*
X392544Y365799D01*
Y365786D01*
X392530Y365753D01*
X392524Y365701D01*
X392511Y365629D01*
X392498Y365544D01*
X392485Y365446D01*
X392478Y365335D01*
X392472Y365211D01*
Y365204D01*
Y365198D01*
Y365178D01*
Y365152D01*
X392478Y365093D01*
Y365015D01*
X392485Y364924D01*
X392498Y364826D01*
X392517Y364721D01*
X392537Y364623D01*
X392544Y364610D01*
X392550Y364584D01*
X392570Y364532D01*
X392589Y364473D01*
X392615Y364408D01*
X392654Y364336D01*
X392694Y364264D01*
X392739Y364199D01*
X392746Y364192D01*
X392765Y364173D01*
X392792Y364140D01*
X392831Y364101D01*
X392877Y364062D01*
X392935Y364022D01*
X393001Y363977D01*
X393066Y363944D01*
X393072Y363937D01*
X393099Y363931D01*
X393138Y363918D01*
X393197Y363905D01*
X393262Y363885D01*
X393334Y363872D01*
X393419Y363866D01*
X393503Y363859D01*
X393575D01*
X393628Y363866D01*
X393686Y363872D01*
X393745Y363879D01*
X393863Y363905D01*
X393869D01*
X393889Y363911D01*
X393915Y363924D01*
X393954Y363937D01*
X394039Y363977D01*
X394124Y364016D01*
X394130D01*
X394143Y364029D01*
X394163Y364042D01*
X394189Y364055D01*
X394248Y364094D01*
X394307Y364133D01*
X394313D01*
X394320Y364140D01*
X394346Y364159D01*
X394385Y364179D01*
X394418Y364186D01*
X394431D01*
X394450Y364173D01*
X394457Y364166D01*
X394463Y364159D01*
X394470Y364140D01*
Y364133D01*
X394476Y364127D01*
Y364107D01*
X394483Y364081D01*
Y364075D01*
X394489Y364055D01*
Y364022D01*
Y363977D01*
Y363970D01*
Y363951D01*
X394483Y363905D01*
Y363898D01*
Y363885D01*
X394476Y363846D01*
Y363840D01*
X394470Y363833D01*
X394457Y363800D01*
X394450Y363787D01*
X394437Y363774D01*
X394418Y363755D01*
X394411Y363748D01*
X394391Y363735D01*
X394359Y363709D01*
X394307Y363676D01*
X394300D01*
X394294Y363670D01*
X394274Y363657D01*
X394248Y363644D01*
X394182Y363611D01*
X394091Y363572D01*
X394085D01*
X394072Y363565D01*
X394045Y363552D01*
X394006Y363539D01*
X393967Y363526D01*
X393915Y363513D01*
X393804Y363487D01*
X393797D01*
X393778Y363480D01*
X393745Y363474D01*
X393699D01*
X393647Y363467D01*
X393582Y363461D01*
X393445Y363454D01*
X393386D01*
X393321Y363461D01*
X393242Y363467D01*
X393144Y363480D01*
X393040Y363500D01*
X392935Y363526D01*
X392831Y363565D01*
X392818Y363572D01*
X392785Y363585D01*
X392739Y363611D01*
X392674Y363650D01*
X392602Y363696D01*
X392524Y363748D01*
X392446Y363813D01*
X392374Y363892D01*
X392367Y363905D01*
X392341Y363931D01*
X392308Y363977D01*
X392269Y364042D01*
X392217Y364120D01*
X392171Y364212D01*
X392126Y364316D01*
X392080Y364434D01*
Y364440D01*
X392073Y364447D01*
Y364466D01*
X392067Y364493D01*
X392047Y364558D01*
X392034Y364649D01*
X392015Y364760D01*
X391995Y364891D01*
X391988Y365028D01*
X391982Y365185D01*
Y365191D01*
Y365204D01*
Y365224D01*
Y365257D01*
X391988Y365296D01*
Y365341D01*
X391995Y365439D01*
X392008Y365564D01*
X392028Y365688D01*
X392054Y365818D01*
X392086Y365949D01*
Y365955D01*
X392093Y365962D01*
X392099Y365981D01*
X392106Y366007D01*
X392132Y366066D01*
X392165Y366151D01*
X392211Y366236D01*
X392263Y366334D01*
X392328Y366432D01*
X392400Y366523D01*
X392406Y366536D01*
X392439Y366563D01*
X392478Y366602D01*
X392537Y366654D01*
X392602Y366713D01*
X392687Y366772D01*
X392779Y366830D01*
X392877Y366882D01*
X392883D01*
X392890Y366889D01*
X392929Y366902D01*
X392981Y366922D01*
X393059Y366948D01*
X393151Y366967D01*
X393255Y366987D01*
X393373Y367000D01*
X393497Y367007D01*
X393549D01*
X393588Y367000D01*
D02*
G37*
G36*
X396285Y366981D02*
X396292D01*
X396311Y366974D01*
X396331Y366967D01*
X396351Y366961D01*
X396357D01*
X396364Y366954D01*
X396377Y366948D01*
X396383Y366941D01*
X396390Y366935D01*
X396396Y366909D01*
Y363872D01*
X397036D01*
X397062Y363859D01*
X397069D01*
X397075Y363853D01*
X397088Y363820D01*
Y363813D01*
X397095Y363807D01*
X397101Y363787D01*
X397108Y363761D01*
Y363755D01*
X397114Y363742D01*
X397121Y363716D01*
Y363683D01*
Y363676D01*
Y363650D01*
X397114Y363624D01*
X397108Y363591D01*
Y363585D01*
X397101Y363572D01*
X397088Y363533D01*
X397082Y363520D01*
X397056Y363507D01*
X397049D01*
X397023Y363500D01*
X395201D01*
X395175Y363507D01*
X395169Y363513D01*
X395149Y363533D01*
Y363539D01*
X395143Y363552D01*
X395129Y363591D01*
Y363598D01*
Y363617D01*
X395123Y363644D01*
Y363683D01*
Y363689D01*
Y363709D01*
X395129Y363761D01*
Y363768D01*
X395136Y363781D01*
X395143Y363800D01*
X395149Y363820D01*
Y363826D01*
X395156Y363833D01*
X395175Y363859D01*
X395182D01*
X395188Y363866D01*
X395214Y363872D01*
X395939D01*
Y366504D01*
X395267Y366106D01*
X395260Y366099D01*
X395240Y366086D01*
X395214Y366073D01*
X395188Y366066D01*
X395169D01*
X395136Y366079D01*
Y366086D01*
X395129Y366092D01*
X395123Y366112D01*
X395116Y366138D01*
Y366145D01*
Y366164D01*
X395110Y366197D01*
Y366243D01*
Y366249D01*
Y366269D01*
Y366321D01*
Y366328D01*
X395116Y366340D01*
X395123Y366373D01*
Y366380D01*
X395129Y366386D01*
X395143Y366406D01*
X395149Y366412D01*
X395156Y366419D01*
X395182Y366439D01*
X395978Y366954D01*
X395985Y366961D01*
X396011D01*
X396018Y366967D01*
X396044Y366974D01*
X396050D01*
X396063Y366981D01*
X396109D01*
X396122Y366987D01*
X396253D01*
X396285Y366981D01*
D02*
G37*
G36*
X391100Y366974D02*
X391133Y366967D01*
X391140D01*
X391159Y366961D01*
X391185D01*
X391205Y366954D01*
X391211D01*
X391218Y366948D01*
X391244Y366928D01*
X391251Y366922D01*
X391257Y366889D01*
Y363572D01*
Y363565D01*
Y363559D01*
X391244Y363526D01*
X391237Y363520D01*
X391205Y363507D01*
X391198D01*
X391185Y363500D01*
X391166D01*
X391133Y363493D01*
X391107D01*
X391074Y363487D01*
X390957D01*
X390917Y363493D01*
X390911D01*
X390891Y363500D01*
X390865D01*
X390846Y363507D01*
X390839D01*
X390833Y363513D01*
X390807Y363526D01*
Y363533D01*
Y363539D01*
X390800Y363572D01*
Y366889D01*
Y366896D01*
Y366902D01*
X390807Y366928D01*
Y366935D01*
X390820Y366941D01*
X390846Y366954D01*
X390852D01*
X390865Y366961D01*
X390891D01*
X390917Y366967D01*
X390924D01*
X390950Y366974D01*
X390983Y366981D01*
X391068D01*
X391100Y366974D01*
D02*
G37*
G36*
X421156Y352889D02*
X421189Y352882D01*
X421196D01*
X421209Y352876D01*
X421254Y352863D01*
X421261D01*
X421267Y352856D01*
X421293Y352837D01*
Y352824D01*
X421300Y352791D01*
Y350858D01*
X421293Y350812D01*
Y350806D01*
X421287Y350799D01*
X421267Y350760D01*
X421261D01*
X421248Y350747D01*
X421228Y350741D01*
X421202Y350734D01*
X421196D01*
X421176D01*
X421143Y350728D01*
X421104D01*
X421091D01*
X421071D01*
X421039D01*
X421006D01*
X421000D01*
X420980Y350734D01*
X420941Y350747D01*
X420934D01*
X420921Y350754D01*
X420876Y350780D01*
X420869Y350786D01*
X420856Y350793D01*
X420810Y350832D01*
X420098Y351531D01*
X420085Y351544D01*
X420059Y351570D01*
X420007Y351616D01*
X419948Y351668D01*
X419883Y351727D01*
X419805Y351792D01*
X419733Y351851D01*
X419654Y351909D01*
X419648Y351916D01*
X419622Y351936D01*
X419583Y351962D01*
X419537Y351994D01*
X419485Y352033D01*
X419426Y352073D01*
X419361Y352105D01*
X419302Y352138D01*
X419295Y352145D01*
X419276Y352151D01*
X419243Y352164D01*
X419204Y352184D01*
X419106Y352216D01*
X419008Y352242D01*
X419001D01*
X418988Y352249D01*
X418962D01*
X418930Y352256D01*
X418851Y352262D01*
X418766Y352269D01*
X418760D01*
X418747D01*
X418721D01*
X418694Y352262D01*
X418623Y352256D01*
X418544Y352229D01*
X418538D01*
X418525Y352223D01*
X418505Y352216D01*
X418479Y352203D01*
X418420Y352164D01*
X418362Y352112D01*
X418355D01*
X418348Y352099D01*
X418316Y352060D01*
X418277Y352007D01*
X418237Y351929D01*
Y351922D01*
X418231Y351909D01*
X418224Y351883D01*
X418211Y351857D01*
X418205Y351818D01*
X418198Y351772D01*
X418192Y351674D01*
Y351616D01*
X418198Y351576D01*
X418211Y351478D01*
X418237Y351374D01*
Y351367D01*
X418244Y351354D01*
X418257Y351328D01*
X418270Y351296D01*
X418303Y351217D01*
X418342Y351139D01*
Y351132D01*
X418348Y351126D01*
X418375Y351080D01*
X418407Y351028D01*
X418440Y350969D01*
X418446Y350956D01*
X418460Y350930D01*
X418472Y350897D01*
X418479Y350871D01*
Y350858D01*
X418472Y350832D01*
X418466Y350825D01*
X418440Y350806D01*
X418433D01*
X418420Y350799D01*
X418401D01*
X418375Y350793D01*
X418368D01*
X418348D01*
X418316D01*
X418277D01*
X418270D01*
X418251D01*
X418211D01*
X418205D01*
X418192D01*
X418159Y350799D01*
X418153D01*
X418146Y350806D01*
X418120Y350819D01*
X418113D01*
X418107Y350832D01*
X418074Y350858D01*
X418068Y350865D01*
X418055Y350884D01*
X418028Y350917D01*
X417996Y350969D01*
Y350976D01*
X417989Y350982D01*
X417976Y351002D01*
X417970Y351028D01*
X417937Y351093D01*
X417904Y351171D01*
Y351178D01*
X417898Y351191D01*
X417885Y351217D01*
X417872Y351250D01*
X417859Y351289D01*
X417846Y351335D01*
X417819Y351433D01*
Y351439D01*
X417813Y351459D01*
X417806Y351485D01*
X417800Y351524D01*
Y351570D01*
X417793Y351622D01*
X417787Y351733D01*
Y351779D01*
X417793Y351824D01*
Y351883D01*
X417806Y351955D01*
X417819Y352027D01*
X417833Y352105D01*
X417859Y352177D01*
Y352184D01*
X417872Y352210D01*
X417885Y352242D01*
X417911Y352288D01*
X417970Y352393D01*
X418055Y352491D01*
X418061Y352497D01*
X418074Y352510D01*
X418100Y352536D01*
X418140Y352562D01*
X418179Y352589D01*
X418231Y352621D01*
X418342Y352673D01*
X418348D01*
X418368Y352687D01*
X418401Y352693D01*
X418446Y352706D01*
X418499Y352719D01*
X418557Y352726D01*
X418688Y352739D01*
X418694D01*
X418714D01*
X418753D01*
X418792Y352732D01*
X418845D01*
X418897Y352726D01*
X419021Y352706D01*
X419028D01*
X419047Y352699D01*
X419080Y352693D01*
X419126Y352680D01*
X419178Y352660D01*
X419237Y352634D01*
X419374Y352575D01*
X419380Y352569D01*
X419406Y352556D01*
X419446Y352536D01*
X419498Y352510D01*
X419563Y352471D01*
X419635Y352419D01*
X419713Y352366D01*
X419798Y352301D01*
X419811Y352295D01*
X419837Y352269D01*
X419889Y352229D01*
X419955Y352177D01*
X420033Y352112D01*
X420125Y352027D01*
X420229Y351936D01*
X420340Y351831D01*
X420908Y351283D01*
Y352804D01*
X420921Y352830D01*
Y352837D01*
X420928Y352843D01*
X420960Y352863D01*
X420967D01*
X420980Y352869D01*
X421000Y352876D01*
X421026Y352882D01*
X421032D01*
X421045Y352889D01*
X421071Y352895D01*
X421104D01*
X421111D01*
X421130D01*
X421156Y352889D01*
D02*
G37*
G36*
X421274Y350192D02*
X421280Y350185D01*
X421287Y350179D01*
X421293Y350159D01*
Y350153D01*
X421300Y350140D01*
Y350114D01*
X421307Y350081D01*
Y350048D01*
X421313Y350009D01*
Y349885D01*
X421307Y349846D01*
Y349839D01*
X421300Y349820D01*
Y349794D01*
X421293Y349774D01*
Y349768D01*
X421287Y349761D01*
X421261Y349728D01*
X421254D01*
X421248Y349722D01*
X421209Y349709D01*
X420392Y349389D01*
X420386D01*
X420366Y349376D01*
X420340Y349369D01*
X420307Y349350D01*
X420229Y349317D01*
X420138Y349271D01*
X420131D01*
X420118Y349258D01*
X420098Y349245D01*
X420066Y349232D01*
X420007Y349186D01*
X419942Y349128D01*
X419935Y349121D01*
X419929Y349115D01*
X419909Y349095D01*
X419896Y349069D01*
X419850Y349010D01*
X419811Y348932D01*
Y348925D01*
X419805Y348912D01*
X419792Y348886D01*
X419785Y348860D01*
X419772Y348821D01*
X419765Y348775D01*
X419759Y348664D01*
Y348357D01*
X421228D01*
X421235D01*
X421241D01*
X421274Y348344D01*
X421280Y348338D01*
X421293Y348305D01*
Y348298D01*
X421300Y348285D01*
Y348266D01*
X421307Y348233D01*
Y348207D01*
X421313Y348174D01*
Y348050D01*
X421307Y348011D01*
Y348005D01*
X421300Y347991D01*
X421293Y347946D01*
Y347939D01*
X421287Y347933D01*
X421274Y347906D01*
X421267D01*
X421261D01*
X421228Y347900D01*
X418028D01*
X418022D01*
X418009D01*
X417970Y347906D01*
X417924Y347920D01*
X417885Y347952D01*
X417878Y347959D01*
X417859Y347985D01*
X417846Y348024D01*
X417839Y348070D01*
Y348880D01*
X417846Y348945D01*
X417852Y349017D01*
Y349030D01*
X417859Y349069D01*
Y349121D01*
X417865Y349180D01*
Y349186D01*
X417872Y349213D01*
X417878Y349252D01*
X417891Y349297D01*
X417904Y349350D01*
X417924Y349408D01*
X417976Y349533D01*
Y349539D01*
X417989Y349559D01*
X418002Y349585D01*
X418028Y349624D01*
X418087Y349709D01*
X418166Y349794D01*
X418172Y349800D01*
X418185Y349813D01*
X418211Y349833D01*
X418237Y349852D01*
X418277Y349879D01*
X418322Y349905D01*
X418427Y349950D01*
X418433D01*
X418453Y349957D01*
X418486Y349970D01*
X418525Y349976D01*
X418571Y349990D01*
X418629Y349996D01*
X418753Y350003D01*
X418760D01*
X418786D01*
X418819D01*
X418858Y349996D01*
X418962Y349983D01*
X419067Y349950D01*
X419073D01*
X419093Y349944D01*
X419119Y349931D01*
X419152Y349918D01*
X419230Y349872D01*
X419315Y349813D01*
X419321Y349807D01*
X419335Y349800D01*
X419354Y349781D01*
X419374Y349755D01*
X419439Y349689D01*
X419498Y349604D01*
Y349598D01*
X419511Y349585D01*
X419524Y349559D01*
X419543Y349526D01*
X419563Y349480D01*
X419583Y349434D01*
X419628Y349330D01*
Y349337D01*
X419635Y349343D01*
X419654Y349382D01*
X419681Y349428D01*
X419720Y349480D01*
Y349487D01*
X419733Y349493D01*
X419759Y349526D01*
X419805Y349565D01*
X419857Y349611D01*
X419863D01*
X419870Y349624D01*
X419909Y349650D01*
X419968Y349689D01*
X420040Y349728D01*
X420046D01*
X420059Y349735D01*
X420079Y349748D01*
X420105Y349761D01*
X420183Y349794D01*
X420275Y349833D01*
X421039Y350146D01*
X421045D01*
X421052Y350153D01*
X421091Y350166D01*
X421130Y350185D01*
X421169Y350192D01*
X421176D01*
X421189Y350199D01*
X421209Y350205D01*
X421228D01*
X421235D01*
X421241D01*
X421274Y350192D01*
D02*
G37*
G36*
X421176Y335195D02*
X421209Y335189D01*
X421215D01*
X421228Y335182D01*
X421267Y335169D01*
X421280Y335163D01*
X421293Y335137D01*
Y335130D01*
X421300Y335104D01*
Y333282D01*
X421293Y333256D01*
X421287Y333249D01*
X421267Y333230D01*
X421261D01*
X421248Y333223D01*
X421209Y333210D01*
X421202D01*
X421182D01*
X421156Y333204D01*
X421117D01*
X421111D01*
X421091D01*
X421039Y333210D01*
X421032D01*
X421019Y333217D01*
X421000Y333223D01*
X420980Y333230D01*
X420973D01*
X420967Y333237D01*
X420941Y333256D01*
Y333263D01*
X420934Y333269D01*
X420928Y333295D01*
Y334020D01*
X418296D01*
X418694Y333348D01*
X418701Y333341D01*
X418714Y333321D01*
X418727Y333295D01*
X418734Y333269D01*
Y333249D01*
X418721Y333217D01*
X418714D01*
X418708Y333210D01*
X418688Y333204D01*
X418662Y333197D01*
X418655D01*
X418636D01*
X418603Y333191D01*
X418557D01*
X418551D01*
X418531D01*
X418479D01*
X418472D01*
X418460Y333197D01*
X418427Y333204D01*
X418420D01*
X418414Y333210D01*
X418394Y333223D01*
X418388Y333230D01*
X418381Y333237D01*
X418362Y333263D01*
X417846Y334059D01*
X417839Y334066D01*
Y334092D01*
X417833Y334098D01*
X417826Y334124D01*
Y334131D01*
X417819Y334144D01*
Y334190D01*
X417813Y334203D01*
Y334333D01*
X417819Y334366D01*
Y334373D01*
X417826Y334392D01*
X417833Y334412D01*
X417839Y334431D01*
Y334438D01*
X417846Y334444D01*
X417852Y334458D01*
X417859Y334464D01*
X417865Y334471D01*
X417891Y334477D01*
X420928D01*
Y335117D01*
X420941Y335143D01*
Y335150D01*
X420947Y335156D01*
X420980Y335169D01*
X420987D01*
X420993Y335176D01*
X421013Y335182D01*
X421039Y335189D01*
X421045D01*
X421058Y335195D01*
X421084Y335202D01*
X421117D01*
X421124D01*
X421150D01*
X421176Y335195D01*
D02*
G37*
G36*
X421274Y332492D02*
X421280Y332486D01*
X421287Y332479D01*
X421293Y332459D01*
Y332453D01*
X421300Y332440D01*
Y332414D01*
X421307Y332381D01*
Y332348D01*
X421313Y332309D01*
Y332185D01*
X421307Y332146D01*
Y332139D01*
X421300Y332120D01*
Y332094D01*
X421293Y332074D01*
Y332068D01*
X421287Y332061D01*
X421261Y332028D01*
X421254D01*
X421248Y332022D01*
X421209Y332009D01*
X420392Y331689D01*
X420386D01*
X420366Y331676D01*
X420340Y331669D01*
X420307Y331650D01*
X420229Y331617D01*
X420138Y331571D01*
X420131D01*
X420118Y331558D01*
X420098Y331545D01*
X420066Y331532D01*
X420007Y331486D01*
X419942Y331428D01*
X419935Y331421D01*
X419929Y331415D01*
X419909Y331395D01*
X419896Y331369D01*
X419850Y331310D01*
X419811Y331232D01*
Y331225D01*
X419805Y331212D01*
X419792Y331186D01*
X419785Y331160D01*
X419772Y331121D01*
X419765Y331075D01*
X419759Y330964D01*
Y330657D01*
X421228D01*
X421235D01*
X421241D01*
X421274Y330644D01*
X421280Y330638D01*
X421293Y330605D01*
Y330598D01*
X421300Y330585D01*
Y330566D01*
X421307Y330533D01*
Y330507D01*
X421313Y330474D01*
Y330350D01*
X421307Y330311D01*
Y330305D01*
X421300Y330291D01*
X421293Y330246D01*
Y330239D01*
X421287Y330233D01*
X421274Y330206D01*
X421267D01*
X421261D01*
X421228Y330200D01*
X418028D01*
X418022D01*
X418009D01*
X417970Y330206D01*
X417924Y330220D01*
X417885Y330252D01*
X417878Y330259D01*
X417859Y330285D01*
X417846Y330324D01*
X417839Y330370D01*
Y331179D01*
X417846Y331245D01*
X417852Y331317D01*
Y331330D01*
X417859Y331369D01*
Y331421D01*
X417865Y331480D01*
Y331486D01*
X417872Y331512D01*
X417878Y331552D01*
X417891Y331597D01*
X417904Y331650D01*
X417924Y331708D01*
X417976Y331833D01*
Y331839D01*
X417989Y331859D01*
X418002Y331885D01*
X418028Y331924D01*
X418087Y332009D01*
X418166Y332094D01*
X418172Y332100D01*
X418185Y332113D01*
X418211Y332133D01*
X418237Y332153D01*
X418277Y332179D01*
X418322Y332205D01*
X418427Y332250D01*
X418433D01*
X418453Y332257D01*
X418486Y332270D01*
X418525Y332277D01*
X418571Y332290D01*
X418629Y332296D01*
X418753Y332303D01*
X418760D01*
X418786D01*
X418819D01*
X418858Y332296D01*
X418962Y332283D01*
X419067Y332250D01*
X419073D01*
X419093Y332244D01*
X419119Y332231D01*
X419152Y332218D01*
X419230Y332172D01*
X419315Y332113D01*
X419321Y332107D01*
X419335Y332100D01*
X419354Y332081D01*
X419374Y332054D01*
X419439Y331989D01*
X419498Y331904D01*
Y331898D01*
X419511Y331885D01*
X419524Y331859D01*
X419543Y331826D01*
X419563Y331780D01*
X419583Y331734D01*
X419628Y331630D01*
Y331637D01*
X419635Y331643D01*
X419654Y331682D01*
X419681Y331728D01*
X419720Y331780D01*
Y331787D01*
X419733Y331793D01*
X419759Y331826D01*
X419805Y331865D01*
X419857Y331911D01*
X419863D01*
X419870Y331924D01*
X419909Y331950D01*
X419968Y331989D01*
X420040Y332028D01*
X420046D01*
X420059Y332035D01*
X420079Y332048D01*
X420105Y332061D01*
X420183Y332094D01*
X420275Y332133D01*
X421039Y332446D01*
X421045D01*
X421052Y332453D01*
X421091Y332466D01*
X421130Y332486D01*
X421169Y332492D01*
X421176D01*
X421189Y332499D01*
X421209Y332505D01*
X421228D01*
X421235D01*
X421241D01*
X421274Y332492D01*
D02*
G37*
G36*
X385058Y286081D02*
X385065D01*
X385084Y286074D01*
X385104Y286067D01*
X385123Y286061D01*
X385130D01*
X385136Y286054D01*
X385149Y286048D01*
X385156Y286041D01*
X385162Y286035D01*
X385169Y286009D01*
Y282972D01*
X385809D01*
X385835Y282959D01*
X385841D01*
X385848Y282953D01*
X385861Y282920D01*
Y282913D01*
X385868Y282907D01*
X385874Y282887D01*
X385881Y282861D01*
Y282855D01*
X385887Y282842D01*
X385894Y282816D01*
Y282783D01*
Y282776D01*
Y282750D01*
X385887Y282724D01*
X385881Y282691D01*
Y282685D01*
X385874Y282672D01*
X385861Y282633D01*
X385855Y282620D01*
X385828Y282607D01*
X385822D01*
X385796Y282600D01*
X383974D01*
X383948Y282607D01*
X383941Y282613D01*
X383922Y282633D01*
Y282639D01*
X383915Y282652D01*
X383902Y282691D01*
Y282698D01*
Y282717D01*
X383896Y282744D01*
Y282783D01*
Y282789D01*
Y282809D01*
X383902Y282861D01*
Y282868D01*
X383909Y282881D01*
X383915Y282900D01*
X383922Y282920D01*
Y282927D01*
X383928Y282933D01*
X383948Y282959D01*
X383954D01*
X383961Y282966D01*
X383987Y282972D01*
X384712D01*
Y285604D01*
X384039Y285206D01*
X384033Y285199D01*
X384013Y285186D01*
X383987Y285173D01*
X383961Y285166D01*
X383941D01*
X383909Y285179D01*
Y285186D01*
X383902Y285192D01*
X383896Y285212D01*
X383889Y285238D01*
Y285245D01*
Y285264D01*
X383882Y285297D01*
Y285343D01*
Y285349D01*
Y285369D01*
Y285421D01*
Y285427D01*
X383889Y285440D01*
X383896Y285473D01*
Y285480D01*
X383902Y285486D01*
X383915Y285506D01*
X383922Y285512D01*
X383928Y285519D01*
X383954Y285539D01*
X384751Y286054D01*
X384758Y286061D01*
X384784D01*
X384790Y286067D01*
X384816Y286074D01*
X384823D01*
X384836Y286081D01*
X384882D01*
X384895Y286087D01*
X385025D01*
X385058Y286081D01*
D02*
G37*
G36*
X381564Y286054D02*
X381610D01*
X381715Y286048D01*
X381839Y286035D01*
X381963Y286009D01*
X382093Y285982D01*
X382211Y285943D01*
X382217D01*
X382224Y285937D01*
X382263Y285924D01*
X382322Y285898D01*
X382394Y285858D01*
X382479Y285806D01*
X382563Y285754D01*
X382648Y285682D01*
X382733Y285604D01*
X382740Y285597D01*
X382766Y285565D01*
X382805Y285519D01*
X382851Y285460D01*
X382903Y285382D01*
X382955Y285290D01*
X383008Y285186D01*
X383053Y285075D01*
Y285068D01*
X383060Y285062D01*
X383066Y285042D01*
X383073Y285023D01*
X383086Y284957D01*
X383112Y284872D01*
X383132Y284768D01*
X383145Y284650D01*
X383158Y284520D01*
X383164Y284376D01*
Y284370D01*
Y284357D01*
Y284331D01*
Y284298D01*
X383158Y284259D01*
Y284219D01*
X383151Y284108D01*
X383138Y283984D01*
X383112Y283854D01*
X383086Y283723D01*
X383047Y283593D01*
Y283586D01*
X383040Y283579D01*
X383027Y283540D01*
X383001Y283475D01*
X382962Y283397D01*
X382910Y283312D01*
X382857Y283220D01*
X382786Y283122D01*
X382707Y283037D01*
X382701Y283031D01*
X382668Y282998D01*
X382622Y282959D01*
X382557Y282913D01*
X382479Y282861D01*
X382387Y282802D01*
X382283Y282750D01*
X382165Y282704D01*
X382159D01*
X382152Y282698D01*
X382133D01*
X382106Y282691D01*
X382041Y282672D01*
X381950Y282652D01*
X381839Y282633D01*
X381708Y282620D01*
X381564Y282607D01*
X381401Y282600D01*
X380657D01*
X380631Y282607D01*
X380591Y282620D01*
X380552Y282639D01*
X380546Y282646D01*
X380526Y282672D01*
X380506Y282717D01*
X380500Y282783D01*
Y285872D01*
Y285878D01*
Y285891D01*
X380506Y285930D01*
X380520Y285976D01*
X380552Y286015D01*
X380559Y286022D01*
X380585Y286041D01*
X380624Y286054D01*
X380670Y286061D01*
X381532D01*
X381564Y286054D01*
D02*
G37*
G36*
X464977Y333468D02*
X466352D01*
Y332884D01*
X464977D01*
Y331509D01*
X464401D01*
Y332884D01*
X463019D01*
Y333468D01*
X464401D01*
Y334842D01*
X464977D01*
Y333468D01*
D02*
G37*
G36*
X455706Y362700D02*
X455798Y362694D01*
X455902Y362674D01*
X455909D01*
X455928Y362667D01*
X455955Y362661D01*
X455987Y362654D01*
X456072Y362635D01*
X456164Y362602D01*
X456170D01*
X456183Y362596D01*
X456209Y362589D01*
X456235Y362576D01*
X456307Y362543D01*
X456379Y362504D01*
X456386D01*
X456392Y362498D01*
X456431Y362472D01*
X456477Y362445D01*
X456510Y362419D01*
X456516Y362413D01*
X456529Y362400D01*
X456549Y362387D01*
X456555Y362367D01*
X456562Y362354D01*
X456575Y362321D01*
Y362315D01*
X456581Y362302D01*
Y362282D01*
X456588Y362256D01*
Y362249D01*
X456595Y362236D01*
Y362210D01*
Y362178D01*
Y362171D01*
Y362145D01*
Y362119D01*
X456588Y362086D01*
Y362080D01*
X456581Y362067D01*
X456568Y362021D01*
Y362014D01*
X456562Y362008D01*
X456542Y361982D01*
X456536D01*
X456510Y361975D01*
X456503D01*
X456483Y361982D01*
X456451Y361995D01*
X456405Y362021D01*
X456392Y362028D01*
X456359Y362054D01*
X456301Y362093D01*
X456229Y362139D01*
X456222D01*
X456209Y362152D01*
X456190Y362165D01*
X456157Y362178D01*
X456118Y362197D01*
X456079Y362217D01*
X455974Y362256D01*
X455968D01*
X455948Y362263D01*
X455915Y362276D01*
X455870Y362282D01*
X455817Y362295D01*
X455759Y362302D01*
X455687Y362308D01*
X455569D01*
X455523Y362302D01*
X455471Y362295D01*
X455406Y362282D01*
X455334Y362269D01*
X455262Y362243D01*
X455191Y362210D01*
X455184Y362204D01*
X455158Y362191D01*
X455125Y362171D01*
X455080Y362145D01*
X455027Y362106D01*
X454975Y362054D01*
X454916Y362001D01*
X454864Y361936D01*
X454857Y361929D01*
X454844Y361903D01*
X454818Y361864D01*
X454792Y361819D01*
X454760Y361753D01*
X454727Y361675D01*
X454694Y361590D01*
X454662Y361499D01*
Y361486D01*
X454648Y361453D01*
X454642Y361401D01*
X454629Y361329D01*
X454616Y361244D01*
X454603Y361146D01*
X454596Y361035D01*
X454590Y360911D01*
Y360904D01*
Y360898D01*
Y360878D01*
Y360852D01*
X454596Y360793D01*
Y360715D01*
X454603Y360624D01*
X454616Y360526D01*
X454635Y360421D01*
X454655Y360323D01*
X454662Y360310D01*
X454668Y360284D01*
X454688Y360232D01*
X454707Y360173D01*
X454733Y360108D01*
X454773Y360036D01*
X454812Y359964D01*
X454857Y359899D01*
X454864Y359892D01*
X454884Y359873D01*
X454910Y359840D01*
X454949Y359801D01*
X454995Y359762D01*
X455053Y359722D01*
X455119Y359677D01*
X455184Y359644D01*
X455191Y359637D01*
X455217Y359631D01*
X455256Y359618D01*
X455315Y359605D01*
X455380Y359585D01*
X455452Y359572D01*
X455537Y359566D01*
X455621Y359559D01*
X455693D01*
X455746Y359566D01*
X455804Y359572D01*
X455863Y359579D01*
X455981Y359605D01*
X455987D01*
X456007Y359611D01*
X456033Y359624D01*
X456072Y359637D01*
X456157Y359677D01*
X456242Y359716D01*
X456248D01*
X456261Y359729D01*
X456281Y359742D01*
X456307Y359755D01*
X456366Y359794D01*
X456425Y359833D01*
X456431D01*
X456438Y359840D01*
X456464Y359859D01*
X456503Y359879D01*
X456536Y359886D01*
X456549D01*
X456568Y359873D01*
X456575Y359866D01*
X456581Y359859D01*
X456588Y359840D01*
Y359833D01*
X456595Y359827D01*
Y359807D01*
X456601Y359781D01*
Y359775D01*
X456607Y359755D01*
Y359722D01*
Y359677D01*
Y359670D01*
Y359651D01*
X456601Y359605D01*
Y359598D01*
Y359585D01*
X456595Y359546D01*
Y359540D01*
X456588Y359533D01*
X456575Y359500D01*
X456568Y359487D01*
X456555Y359474D01*
X456536Y359455D01*
X456529Y359448D01*
X456510Y359435D01*
X456477Y359409D01*
X456425Y359376D01*
X456418D01*
X456412Y359370D01*
X456392Y359357D01*
X456366Y359344D01*
X456301Y359311D01*
X456209Y359272D01*
X456203D01*
X456190Y359265D01*
X456164Y359252D01*
X456124Y359239D01*
X456085Y359226D01*
X456033Y359213D01*
X455922Y359187D01*
X455915D01*
X455896Y359180D01*
X455863Y359174D01*
X455817D01*
X455765Y359167D01*
X455700Y359161D01*
X455563Y359154D01*
X455504D01*
X455439Y359161D01*
X455360Y359167D01*
X455262Y359180D01*
X455158Y359200D01*
X455053Y359226D01*
X454949Y359265D01*
X454936Y359272D01*
X454903Y359285D01*
X454857Y359311D01*
X454792Y359350D01*
X454720Y359396D01*
X454642Y359448D01*
X454564Y359513D01*
X454492Y359592D01*
X454485Y359605D01*
X454459Y359631D01*
X454426Y359677D01*
X454387Y359742D01*
X454335Y359820D01*
X454289Y359912D01*
X454244Y360016D01*
X454198Y360134D01*
Y360140D01*
X454191Y360147D01*
Y360166D01*
X454185Y360193D01*
X454165Y360258D01*
X454152Y360349D01*
X454133Y360460D01*
X454113Y360591D01*
X454107Y360728D01*
X454100Y360885D01*
Y360891D01*
Y360904D01*
Y360924D01*
Y360957D01*
X454107Y360996D01*
Y361041D01*
X454113Y361139D01*
X454126Y361263D01*
X454146Y361388D01*
X454172Y361518D01*
X454205Y361649D01*
Y361655D01*
X454211Y361662D01*
X454217Y361681D01*
X454224Y361707D01*
X454250Y361766D01*
X454283Y361851D01*
X454328Y361936D01*
X454381Y362034D01*
X454446Y362132D01*
X454518Y362223D01*
X454524Y362236D01*
X454557Y362263D01*
X454596Y362302D01*
X454655Y362354D01*
X454720Y362413D01*
X454805Y362472D01*
X454897Y362530D01*
X454995Y362582D01*
X455001D01*
X455008Y362589D01*
X455047Y362602D01*
X455099Y362622D01*
X455177Y362648D01*
X455269Y362667D01*
X455373Y362687D01*
X455491Y362700D01*
X455615Y362707D01*
X455667D01*
X455706Y362700D01*
D02*
G37*
G36*
X458162Y362707D02*
X458220D01*
X458292Y362694D01*
X458364Y362681D01*
X458442Y362667D01*
X458514Y362641D01*
X458521D01*
X458547Y362628D01*
X458580Y362615D01*
X458625Y362589D01*
X458730Y362530D01*
X458828Y362445D01*
X458834Y362439D01*
X458847Y362426D01*
X458873Y362400D01*
X458899Y362361D01*
X458926Y362321D01*
X458958Y362269D01*
X459011Y362158D01*
Y362152D01*
X459024Y362132D01*
X459030Y362099D01*
X459043Y362054D01*
X459056Y362001D01*
X459063Y361943D01*
X459076Y361812D01*
Y361806D01*
Y361786D01*
Y361747D01*
X459069Y361707D01*
Y361655D01*
X459063Y361603D01*
X459043Y361479D01*
Y361472D01*
X459037Y361453D01*
X459030Y361420D01*
X459017Y361374D01*
X458997Y361322D01*
X458971Y361263D01*
X458913Y361126D01*
X458906Y361120D01*
X458893Y361094D01*
X458873Y361054D01*
X458847Y361002D01*
X458808Y360937D01*
X458756Y360865D01*
X458704Y360787D01*
X458638Y360702D01*
X458632Y360689D01*
X458606Y360663D01*
X458567Y360611D01*
X458514Y360545D01*
X458449Y360467D01*
X458364Y360375D01*
X458273Y360271D01*
X458168Y360160D01*
X457620Y359592D01*
X459141D01*
X459167Y359579D01*
X459174D01*
X459180Y359572D01*
X459200Y359540D01*
Y359533D01*
X459206Y359520D01*
X459213Y359500D01*
X459220Y359474D01*
Y359468D01*
X459226Y359455D01*
X459233Y359429D01*
Y359396D01*
Y359389D01*
Y359370D01*
X459226Y359344D01*
X459220Y359311D01*
Y359304D01*
X459213Y359291D01*
X459200Y359246D01*
Y359239D01*
X459193Y359233D01*
X459174Y359207D01*
X459161D01*
X459128Y359200D01*
X457195D01*
X457150Y359207D01*
X457143D01*
X457136Y359213D01*
X457097Y359233D01*
Y359239D01*
X457084Y359252D01*
X457078Y359272D01*
X457071Y359298D01*
Y359304D01*
Y359324D01*
X457065Y359357D01*
Y359396D01*
Y359409D01*
Y359429D01*
Y359461D01*
Y359494D01*
Y359500D01*
X457071Y359520D01*
X457084Y359559D01*
Y359566D01*
X457091Y359579D01*
X457117Y359624D01*
X457123Y359631D01*
X457130Y359644D01*
X457169Y359690D01*
X457868Y360402D01*
X457881Y360415D01*
X457907Y360441D01*
X457953Y360493D01*
X458005Y360552D01*
X458064Y360617D01*
X458129Y360695D01*
X458188Y360767D01*
X458247Y360846D01*
X458253Y360852D01*
X458273Y360878D01*
X458299Y360917D01*
X458331Y360963D01*
X458371Y361015D01*
X458410Y361074D01*
X458442Y361139D01*
X458475Y361198D01*
X458482Y361205D01*
X458488Y361224D01*
X458501Y361257D01*
X458521Y361296D01*
X458554Y361394D01*
X458580Y361492D01*
Y361499D01*
X458586Y361512D01*
Y361538D01*
X458593Y361570D01*
X458599Y361649D01*
X458606Y361734D01*
Y361740D01*
Y361753D01*
Y361779D01*
X458599Y361806D01*
X458593Y361877D01*
X458567Y361956D01*
Y361962D01*
X458560Y361975D01*
X458554Y361995D01*
X458540Y362021D01*
X458501Y362080D01*
X458449Y362139D01*
Y362145D01*
X458436Y362152D01*
X458397Y362184D01*
X458345Y362223D01*
X458266Y362263D01*
X458260D01*
X458247Y362269D01*
X458220Y362276D01*
X458194Y362289D01*
X458155Y362295D01*
X458109Y362302D01*
X458011Y362308D01*
X457953D01*
X457913Y362302D01*
X457816Y362289D01*
X457711Y362263D01*
X457705D01*
X457691Y362256D01*
X457665Y362243D01*
X457633Y362230D01*
X457554Y362197D01*
X457476Y362158D01*
X457470D01*
X457463Y362152D01*
X457417Y362125D01*
X457365Y362093D01*
X457306Y362060D01*
X457293Y362054D01*
X457267Y362040D01*
X457234Y362028D01*
X457208Y362021D01*
X457195D01*
X457169Y362028D01*
X457163Y362034D01*
X457143Y362060D01*
Y362067D01*
X457136Y362080D01*
Y362099D01*
X457130Y362125D01*
Y362132D01*
Y362152D01*
Y362184D01*
Y362223D01*
Y362230D01*
Y362249D01*
Y362289D01*
Y362295D01*
Y362308D01*
X457136Y362341D01*
Y362348D01*
X457143Y362354D01*
X457156Y362380D01*
Y362387D01*
X457169Y362393D01*
X457195Y362426D01*
X457202Y362432D01*
X457221Y362445D01*
X457254Y362472D01*
X457306Y362504D01*
X457313D01*
X457319Y362511D01*
X457339Y362524D01*
X457365Y362530D01*
X457430Y362563D01*
X457509Y362596D01*
X457515D01*
X457528Y362602D01*
X457554Y362615D01*
X457587Y362628D01*
X457626Y362641D01*
X457672Y362654D01*
X457770Y362681D01*
X457776D01*
X457796Y362687D01*
X457822Y362694D01*
X457861Y362700D01*
X457907D01*
X457959Y362707D01*
X458070Y362713D01*
X458116D01*
X458162Y362707D01*
D02*
G37*
G36*
X352772Y304925D02*
X354147D01*
Y304341D01*
X352772D01*
Y302966D01*
X352197D01*
Y304341D01*
X350814D01*
Y304925D01*
X352197D01*
Y306299D01*
X352772D01*
Y304925D01*
D02*
G37*
G36*
X343506Y341100D02*
X343598Y341094D01*
X343702Y341074D01*
X343709D01*
X343728Y341067D01*
X343755Y341061D01*
X343787Y341054D01*
X343872Y341035D01*
X343964Y341002D01*
X343970D01*
X343983Y340996D01*
X344009Y340989D01*
X344035Y340976D01*
X344107Y340943D01*
X344179Y340904D01*
X344185D01*
X344192Y340898D01*
X344231Y340872D01*
X344277Y340845D01*
X344310Y340819D01*
X344316Y340813D01*
X344329Y340800D01*
X344349Y340787D01*
X344355Y340767D01*
X344362Y340754D01*
X344375Y340721D01*
Y340715D01*
X344381Y340702D01*
Y340682D01*
X344388Y340656D01*
Y340650D01*
X344394Y340636D01*
Y340610D01*
Y340578D01*
Y340571D01*
Y340545D01*
Y340519D01*
X344388Y340486D01*
Y340480D01*
X344381Y340467D01*
X344368Y340421D01*
Y340414D01*
X344362Y340408D01*
X344342Y340382D01*
X344336D01*
X344310Y340375D01*
X344303D01*
X344283Y340382D01*
X344251Y340395D01*
X344205Y340421D01*
X344192Y340427D01*
X344159Y340454D01*
X344101Y340493D01*
X344029Y340539D01*
X344022D01*
X344009Y340552D01*
X343990Y340565D01*
X343957Y340578D01*
X343918Y340597D01*
X343879Y340617D01*
X343774Y340656D01*
X343768D01*
X343748Y340663D01*
X343715Y340676D01*
X343670Y340682D01*
X343617Y340695D01*
X343559Y340702D01*
X343487Y340708D01*
X343369D01*
X343323Y340702D01*
X343271Y340695D01*
X343206Y340682D01*
X343134Y340669D01*
X343062Y340643D01*
X342990Y340610D01*
X342984Y340604D01*
X342958Y340591D01*
X342925Y340571D01*
X342880Y340545D01*
X342827Y340506D01*
X342775Y340454D01*
X342716Y340401D01*
X342664Y340336D01*
X342657Y340330D01*
X342644Y340303D01*
X342618Y340264D01*
X342592Y340218D01*
X342560Y340153D01*
X342527Y340075D01*
X342494Y339990D01*
X342462Y339899D01*
Y339885D01*
X342448Y339853D01*
X342442Y339801D01*
X342429Y339729D01*
X342416Y339644D01*
X342403Y339546D01*
X342396Y339435D01*
X342390Y339311D01*
Y339304D01*
Y339298D01*
Y339278D01*
Y339252D01*
X342396Y339193D01*
Y339115D01*
X342403Y339023D01*
X342416Y338926D01*
X342436Y338821D01*
X342455Y338723D01*
X342462Y338710D01*
X342468Y338684D01*
X342488Y338632D01*
X342507Y338573D01*
X342533Y338508D01*
X342573Y338436D01*
X342612Y338364D01*
X342657Y338299D01*
X342664Y338292D01*
X342684Y338273D01*
X342710Y338240D01*
X342749Y338201D01*
X342795Y338162D01*
X342853Y338122D01*
X342919Y338077D01*
X342984Y338044D01*
X342990Y338037D01*
X343017Y338031D01*
X343056Y338018D01*
X343115Y338005D01*
X343180Y337985D01*
X343252Y337972D01*
X343337Y337966D01*
X343422Y337959D01*
X343493D01*
X343546Y337966D01*
X343604Y337972D01*
X343663Y337979D01*
X343781Y338005D01*
X343787D01*
X343807Y338011D01*
X343833Y338024D01*
X343872Y338037D01*
X343957Y338077D01*
X344042Y338116D01*
X344048D01*
X344061Y338129D01*
X344081Y338142D01*
X344107Y338155D01*
X344166Y338194D01*
X344225Y338233D01*
X344231D01*
X344238Y338240D01*
X344264Y338260D01*
X344303Y338279D01*
X344336Y338286D01*
X344349D01*
X344368Y338273D01*
X344375Y338266D01*
X344381Y338260D01*
X344388Y338240D01*
Y338233D01*
X344394Y338227D01*
Y338207D01*
X344401Y338181D01*
Y338175D01*
X344408Y338155D01*
Y338122D01*
Y338077D01*
Y338070D01*
Y338051D01*
X344401Y338005D01*
Y337998D01*
Y337985D01*
X344394Y337946D01*
Y337940D01*
X344388Y337933D01*
X344375Y337900D01*
X344368Y337887D01*
X344355Y337874D01*
X344336Y337855D01*
X344329Y337848D01*
X344310Y337835D01*
X344277Y337809D01*
X344225Y337776D01*
X344218D01*
X344212Y337770D01*
X344192Y337757D01*
X344166Y337744D01*
X344101Y337711D01*
X344009Y337672D01*
X344003D01*
X343990Y337665D01*
X343964Y337652D01*
X343924Y337639D01*
X343885Y337626D01*
X343833Y337613D01*
X343722Y337587D01*
X343715D01*
X343696Y337580D01*
X343663Y337574D01*
X343617D01*
X343565Y337567D01*
X343500Y337561D01*
X343363Y337554D01*
X343304D01*
X343239Y337561D01*
X343160Y337567D01*
X343062Y337580D01*
X342958Y337600D01*
X342853Y337626D01*
X342749Y337665D01*
X342736Y337672D01*
X342703Y337685D01*
X342657Y337711D01*
X342592Y337750D01*
X342520Y337796D01*
X342442Y337848D01*
X342364Y337913D01*
X342292Y337992D01*
X342285Y338005D01*
X342259Y338031D01*
X342227Y338077D01*
X342187Y338142D01*
X342135Y338220D01*
X342089Y338312D01*
X342044Y338416D01*
X341998Y338534D01*
Y338540D01*
X341991Y338547D01*
Y338566D01*
X341985Y338593D01*
X341965Y338658D01*
X341952Y338749D01*
X341933Y338860D01*
X341913Y338991D01*
X341906Y339128D01*
X341900Y339285D01*
Y339291D01*
Y339304D01*
Y339324D01*
Y339357D01*
X341906Y339396D01*
Y339441D01*
X341913Y339539D01*
X341926Y339664D01*
X341946Y339788D01*
X341972Y339918D01*
X342004Y340049D01*
Y340055D01*
X342011Y340062D01*
X342018Y340081D01*
X342024Y340107D01*
X342050Y340166D01*
X342083Y340251D01*
X342128Y340336D01*
X342181Y340434D01*
X342246Y340532D01*
X342318Y340623D01*
X342324Y340636D01*
X342357Y340663D01*
X342396Y340702D01*
X342455Y340754D01*
X342520Y340813D01*
X342605Y340872D01*
X342697Y340930D01*
X342795Y340983D01*
X342801D01*
X342808Y340989D01*
X342847Y341002D01*
X342899Y341022D01*
X342977Y341048D01*
X343069Y341067D01*
X343173Y341087D01*
X343291Y341100D01*
X343415Y341107D01*
X343467D01*
X343506Y341100D01*
D02*
G37*
G36*
X346203Y341080D02*
X346210D01*
X346229Y341074D01*
X346249Y341067D01*
X346269Y341061D01*
X346275D01*
X346282Y341054D01*
X346295Y341048D01*
X346301Y341041D01*
X346308Y341035D01*
X346314Y341009D01*
Y337972D01*
X346954D01*
X346980Y337959D01*
X346987D01*
X346993Y337953D01*
X347007Y337920D01*
Y337913D01*
X347013Y337907D01*
X347020Y337887D01*
X347026Y337861D01*
Y337855D01*
X347033Y337842D01*
X347039Y337815D01*
Y337783D01*
Y337776D01*
Y337750D01*
X347033Y337724D01*
X347026Y337691D01*
Y337685D01*
X347020Y337672D01*
X347007Y337633D01*
X347000Y337620D01*
X346974Y337607D01*
X346967D01*
X346941Y337600D01*
X345119D01*
X345093Y337607D01*
X345087Y337613D01*
X345067Y337633D01*
Y337639D01*
X345060Y337652D01*
X345047Y337691D01*
Y337698D01*
Y337718D01*
X345041Y337744D01*
Y337783D01*
Y337789D01*
Y337809D01*
X345047Y337861D01*
Y337868D01*
X345054Y337881D01*
X345060Y337900D01*
X345067Y337920D01*
Y337927D01*
X345074Y337933D01*
X345093Y337959D01*
X345100D01*
X345106Y337966D01*
X345132Y337972D01*
X345857D01*
Y340604D01*
X345185Y340206D01*
X345178Y340199D01*
X345159Y340186D01*
X345132Y340173D01*
X345106Y340166D01*
X345087D01*
X345054Y340179D01*
Y340186D01*
X345047Y340192D01*
X345041Y340212D01*
X345034Y340238D01*
Y340245D01*
Y340264D01*
X345028Y340297D01*
Y340343D01*
Y340349D01*
Y340369D01*
Y340421D01*
Y340427D01*
X345034Y340441D01*
X345041Y340473D01*
Y340480D01*
X345047Y340486D01*
X345060Y340506D01*
X345067Y340512D01*
X345074Y340519D01*
X345100Y340539D01*
X345896Y341054D01*
X345903Y341061D01*
X345929D01*
X345936Y341067D01*
X345962Y341074D01*
X345968D01*
X345981Y341080D01*
X346027D01*
X346040Y341087D01*
X346171D01*
X346203Y341080D01*
D02*
G37*
%LPC*%
G36*
X493104Y329216D02*
X493092D01*
X493046D01*
X492977D01*
X492885Y329204D01*
X492781D01*
X492654Y329181D01*
X492516Y329170D01*
X492366Y329147D01*
X492055Y329078D01*
X491732Y328974D01*
X491571Y328905D01*
X491421Y328835D01*
X491282Y328743D01*
X491155Y328639D01*
X491144Y328628D01*
X491132Y328616D01*
X491098Y328582D01*
X491052Y328536D01*
X491006Y328478D01*
X490948Y328409D01*
X490890Y328328D01*
X490833Y328236D01*
X490717Y328028D01*
X490614Y327763D01*
X490533Y327463D01*
X490521Y327302D01*
X490510Y327129D01*
Y327037D01*
X490521Y326968D01*
X490533Y326887D01*
X490544Y326795D01*
X490590Y326587D01*
X490671Y326345D01*
X490717Y326218D01*
X490786Y326091D01*
X490867Y325964D01*
X490948Y325838D01*
X491052Y325722D01*
X491167Y325607D01*
X491179Y325595D01*
X491201Y325584D01*
X491236Y325561D01*
X491282Y325515D01*
X491351Y325480D01*
X491444Y325434D01*
X491536Y325376D01*
X491651Y325330D01*
X491778Y325273D01*
X491928Y325226D01*
X492089Y325169D01*
X492262Y325134D01*
X492458Y325100D01*
X492666Y325065D01*
X492885Y325054D01*
X493127Y325042D01*
X493139D01*
X493185D01*
X493254D01*
X493335Y325054D01*
X493450Y325065D01*
X493565Y325077D01*
X493704Y325088D01*
X493853Y325111D01*
X494176Y325180D01*
X494499Y325296D01*
X494661Y325353D01*
X494810Y325434D01*
X494960Y325526D01*
X495087Y325630D01*
X495099Y325642D01*
X495110Y325653D01*
X495145Y325688D01*
X495191Y325734D01*
X495237Y325792D01*
X495295Y325861D01*
X495410Y326034D01*
X495537Y326253D01*
X495641Y326506D01*
X495687Y326656D01*
X495721Y326806D01*
X495733Y326968D01*
X495744Y327129D01*
Y327221D01*
X495733Y327279D01*
X495721Y327360D01*
X495710Y327452D01*
X495664Y327659D01*
X495583Y327890D01*
X495525Y328017D01*
X495468Y328144D01*
X495387Y328270D01*
X495306Y328397D01*
X495202Y328513D01*
X495087Y328628D01*
X495076Y328639D01*
X495052Y328651D01*
X495018Y328685D01*
X494960Y328720D01*
X494891Y328766D01*
X494810Y328812D01*
X494707Y328870D01*
X494591Y328928D01*
X494464Y328974D01*
X494315Y329031D01*
X494153Y329078D01*
X493969Y329124D01*
X493784Y329158D01*
X493565Y329193D01*
X493346Y329204D01*
X493104Y329216D01*
D02*
G37*
G36*
X493127Y308271D02*
X493116D01*
X493092D01*
X493046D01*
X492977D01*
X492908D01*
X492827Y308259D01*
X492631Y308248D01*
X492412Y308236D01*
X492193Y308202D01*
X491974Y308167D01*
X491790Y308109D01*
X491767Y308098D01*
X491709Y308086D01*
X491628Y308052D01*
X491524Y308006D01*
X491397Y307937D01*
X491282Y307867D01*
X491155Y307787D01*
X491052Y307683D01*
X491040Y307671D01*
X491006Y307637D01*
X490959Y307568D01*
X490902Y307487D01*
X490844Y307395D01*
X490786Y307268D01*
X490740Y307129D01*
X490694Y306979D01*
Y306968D01*
X490683Y306910D01*
X490671Y306830D01*
X490648Y306703D01*
Y306622D01*
X490637Y306530D01*
Y306438D01*
X490625Y306322D01*
Y306195D01*
X490614Y306057D01*
Y305054D01*
X495629D01*
Y306403D01*
X495617Y306541D01*
Y306680D01*
X495595Y306841D01*
X495583Y306979D01*
X495560Y307095D01*
Y307106D01*
X495537Y307164D01*
X495514Y307233D01*
X495491Y307314D01*
X495387Y307521D01*
X495329Y307625D01*
X495249Y307717D01*
X495237Y307729D01*
X495202Y307764D01*
X495156Y307798D01*
X495076Y307856D01*
X494972Y307925D01*
X494845Y307983D01*
X494695Y308052D01*
X494522Y308109D01*
X494511D01*
X494499Y308121D01*
X494464D01*
X494430Y308133D01*
X494315Y308156D01*
X494153Y308190D01*
X493957Y308225D01*
X493715Y308248D01*
X493438Y308259D01*
X493127Y308271D01*
D02*
G37*
G36*
X363514Y270348D02*
X359351D01*
Y269621D01*
X359363Y269517D01*
Y269402D01*
X359386Y269275D01*
X359409Y269125D01*
X359432Y268987D01*
X359478Y268849D01*
X359490Y268837D01*
X359501Y268791D01*
X359536Y268722D01*
X359571Y268641D01*
X359628Y268549D01*
X359697Y268445D01*
X359778Y268353D01*
X359870Y268261D01*
X359882Y268249D01*
X359916Y268226D01*
X359974Y268180D01*
X360055Y268134D01*
X360159Y268076D01*
X360274Y268019D01*
X360401Y267961D01*
X360539Y267915D01*
X360562Y267903D01*
X360608Y267892D01*
X360701Y267869D01*
X360804Y267846D01*
X360943Y267823D01*
X361104Y267811D01*
X361277Y267788D01*
X361473D01*
X361496D01*
X361542D01*
X361623D01*
X361738Y267799D01*
X361854Y267811D01*
X361992Y267834D01*
X362269Y267892D01*
X362280D01*
X362338Y267915D01*
X362407Y267938D01*
X362499Y267972D01*
X362592Y268019D01*
X362707Y268076D01*
X362822Y268145D01*
X362926Y268226D01*
X362937Y268238D01*
X362972Y268261D01*
X363018Y268318D01*
X363087Y268376D01*
X363156Y268468D01*
X363226Y268561D01*
X363295Y268676D01*
X363352Y268803D01*
X363364Y268814D01*
X363375Y268860D01*
X363399Y268941D01*
X363433Y269045D01*
X363468Y269183D01*
X363491Y269333D01*
X363502Y269517D01*
X363514Y269725D01*
Y270348D01*
D02*
G37*
G36*
X358663Y359416D02*
Y357801D01*
X361476D01*
Y357813D01*
X358663Y359416D01*
D02*
G37*
G36*
X359701Y354158D02*
X359505D01*
X359493D01*
X359482D01*
X359447D01*
X359401D01*
X359274D01*
X359124Y354146D01*
X358951D01*
X358767Y354135D01*
X358594Y354123D01*
X358421Y354112D01*
X358398D01*
X358351Y354100D01*
X358271Y354089D01*
X358179Y354077D01*
X358063Y354054D01*
X357960Y354019D01*
X357844Y353985D01*
X357740Y353950D01*
X357729D01*
X357694Y353927D01*
X357660Y353904D01*
X357602Y353870D01*
X357487Y353777D01*
X357429Y353720D01*
X357383Y353662D01*
Y353650D01*
X357371Y353627D01*
X357360Y353593D01*
X357337Y353547D01*
X357302Y353408D01*
X357291Y353247D01*
Y353178D01*
X357302Y353132D01*
X357314Y353028D01*
X357348Y352924D01*
Y352913D01*
X357360Y352901D01*
X357395Y352843D01*
X357441Y352763D01*
X357521Y352682D01*
X357544Y352659D01*
X357602Y352613D01*
X357694Y352555D01*
X357810Y352498D01*
X357821D01*
X357844Y352486D01*
X357879Y352474D01*
X357937Y352451D01*
X358063Y352417D01*
X358225Y352382D01*
X358236D01*
X358271Y352371D01*
X358317D01*
X358386Y352359D01*
X358467Y352348D01*
X358559Y352336D01*
X358767Y352325D01*
X358778D01*
X358824D01*
X358882Y352313D01*
X358963D01*
X359055D01*
X359170Y352302D01*
X359424D01*
X359447D01*
X359493D01*
X359585D01*
X359689D01*
X359804Y352313D01*
X359931D01*
X360185Y352336D01*
X360196D01*
X360243D01*
X360300Y352348D01*
X360381D01*
X360565Y352371D01*
X360761Y352405D01*
X360773D01*
X360807Y352417D01*
X360854Y352428D01*
X360911Y352440D01*
X361050Y352474D01*
X361188Y352532D01*
X361199D01*
X361223Y352544D01*
X361292Y352578D01*
X361372Y352636D01*
X361453Y352705D01*
X361476Y352728D01*
X361511Y352774D01*
X361557Y352855D01*
X361603Y352947D01*
X361614Y352970D01*
X361626Y353028D01*
X361638Y353120D01*
X361649Y353224D01*
Y353270D01*
X361638Y353316D01*
Y353385D01*
X361592Y353535D01*
X361557Y353616D01*
X361511Y353685D01*
X361499Y353697D01*
X361488Y353720D01*
X361453Y353754D01*
X361407Y353789D01*
X361349Y353835D01*
X361280Y353881D01*
X361188Y353927D01*
X361096Y353973D01*
X361084D01*
X361050Y353985D01*
X360992Y354008D01*
X360911Y354031D01*
X360819Y354054D01*
X360704Y354077D01*
X360577Y354100D01*
X360427Y354123D01*
X360404D01*
X360358D01*
X360277Y354135D01*
X360162D01*
X360035Y354146D01*
X359874D01*
X359701Y354158D01*
D02*
G37*
G36*
X418806Y349513D02*
X418799D01*
X418773D01*
X418734Y349506D01*
X418681Y349500D01*
X418571Y349474D01*
X418512Y349454D01*
X418460Y349422D01*
X418453Y349415D01*
X418433Y349402D01*
X418414Y349382D01*
X418381Y349350D01*
X418348Y349304D01*
X418316Y349252D01*
X418283Y349193D01*
X418257Y349115D01*
X418251Y349101D01*
X418244Y349069D01*
X418237Y349023D01*
X418231Y348964D01*
Y348951D01*
X418224Y348932D01*
Y348906D01*
X418218Y348834D01*
Y348357D01*
X419387D01*
Y348866D01*
X419380Y348912D01*
X419367Y349010D01*
X419347Y349115D01*
Y349121D01*
X419341Y349141D01*
X419328Y349160D01*
X419315Y349193D01*
X419276Y349265D01*
X419223Y349337D01*
X419217Y349343D01*
X419210Y349350D01*
X419171Y349389D01*
X419112Y349428D01*
X419041Y349467D01*
X419034D01*
X419021Y349474D01*
X419001Y349480D01*
X418969Y349493D01*
X418897Y349506D01*
X418806Y349513D01*
D02*
G37*
G36*
Y331813D02*
X418799D01*
X418773D01*
X418734Y331806D01*
X418681Y331800D01*
X418571Y331774D01*
X418512Y331754D01*
X418460Y331721D01*
X418453Y331715D01*
X418433Y331702D01*
X418414Y331682D01*
X418381Y331650D01*
X418348Y331604D01*
X418316Y331552D01*
X418283Y331493D01*
X418257Y331415D01*
X418251Y331401D01*
X418244Y331369D01*
X418237Y331323D01*
X418231Y331264D01*
Y331251D01*
X418224Y331232D01*
Y331206D01*
X418218Y331134D01*
Y330657D01*
X419387D01*
Y331166D01*
X419380Y331212D01*
X419367Y331310D01*
X419347Y331415D01*
Y331421D01*
X419341Y331441D01*
X419328Y331460D01*
X419315Y331493D01*
X419276Y331565D01*
X419223Y331637D01*
X419217Y331643D01*
X419210Y331650D01*
X419171Y331689D01*
X419112Y331728D01*
X419041Y331767D01*
X419034D01*
X419021Y331774D01*
X419001Y331780D01*
X418969Y331793D01*
X418897Y331806D01*
X418806Y331813D01*
D02*
G37*
G36*
X381421Y285676D02*
X380957D01*
Y282985D01*
X381486D01*
X381545Y282992D01*
X381623Y282998D01*
X381708Y283005D01*
X381806Y283018D01*
X381897Y283037D01*
X381989Y283064D01*
X382002Y283070D01*
X382028Y283077D01*
X382067Y283103D01*
X382119Y283129D01*
X382185Y283162D01*
X382243Y283207D01*
X382309Y283260D01*
X382368Y283318D01*
X382374Y283325D01*
X382394Y283351D01*
X382420Y283384D01*
X382459Y283436D01*
X382492Y283495D01*
X382531Y283566D01*
X382570Y283651D01*
X382603Y283743D01*
X382609Y283756D01*
X382616Y283788D01*
X382629Y283847D01*
X382642Y283919D01*
X382655Y284011D01*
X382668Y284115D01*
X382681Y284226D01*
Y284357D01*
Y284363D01*
Y284370D01*
Y284402D01*
X382675Y284461D01*
Y284526D01*
X382661Y284605D01*
X382648Y284696D01*
X382635Y284788D01*
X382609Y284879D01*
Y284892D01*
X382596Y284918D01*
X382576Y284964D01*
X382557Y285023D01*
X382524Y285088D01*
X382485Y285160D01*
X382439Y285232D01*
X382387Y285297D01*
X382381Y285303D01*
X382361Y285323D01*
X382328Y285356D01*
X382283Y285395D01*
X382230Y285440D01*
X382165Y285486D01*
X382093Y285532D01*
X382008Y285571D01*
X381995Y285578D01*
X381969Y285591D01*
X381917Y285604D01*
X381852Y285623D01*
X381767Y285643D01*
X381669Y285663D01*
X381551Y285669D01*
X381421Y285676D01*
D02*
G37*
%LPD*%
D10*
X472441Y340551D02*
G03*
X472441Y340551I-15748J0D01*
G01*
X463348Y354824D02*
G03*
X450037Y354824I-6655J-14273D01*
G01*
X352807Y332801D02*
G03*
X336169Y332801I-8319J-17841D01*
G01*
X364173Y314961D02*
G03*
X364173Y314961I-19685J0D01*
G01*
X374315Y316815D02*
Y358154D01*
X414669D01*
Y287287D02*
Y358154D01*
X374315Y287287D02*
X414669D01*
X374315D02*
Y316815D01*
X474016Y266142D02*
Y279134D01*
X423622Y266142D02*
Y279134D01*
X474016Y303543D02*
Y316535D01*
X423622Y303543D02*
Y316535D01*
Y266142D02*
X474016D01*
X423622Y316535D02*
X474016D01*
X396850Y273622D02*
X397638D01*
X393701D02*
X394094D01*
X396850Y272047D02*
Y275590D01*
X394094Y273622D02*
X396850Y275590D01*
X394094Y273622D02*
X396850Y272047D01*
X394094Y271654D02*
Y275590D01*
X380906Y274622D02*
Y280122D01*
X410169D01*
X380906Y274622D02*
X381669D01*
Y280122D01*
Y267122D02*
Y272622D01*
X380906D02*
X381669D01*
X410169Y278248D02*
Y280122D01*
X380906Y267122D02*
Y272622D01*
X410169Y267122D02*
Y268996D01*
X380906Y267122D02*
X410169D01*
X450037Y354824D02*
X463348D01*
X336169Y332801D02*
X352807D01*
D11*
X429921Y357087D02*
X430709D01*
Y343701D02*
Y357087D01*
X429921Y343701D02*
X430709D01*
X423622Y357087D02*
X424409D01*
X423622Y343701D02*
Y357087D01*
Y343701D02*
X424409D01*
X423622Y350394D02*
X430709D01*
X429921Y339370D02*
X430709D01*
Y325984D02*
Y339370D01*
X429921Y325984D02*
X430709D01*
X423622Y339370D02*
X424409D01*
X423622Y325984D02*
Y339370D01*
Y325984D02*
X424409D01*
X423622Y332677D02*
X430709D01*
D12*
X444800Y326598D02*
Y320600D01*
X448799D01*
X450798D02*
X452797D01*
X451798D01*
Y326598D01*
X450798Y325598D01*
M02*
