G04*
G04 #@! TF.GenerationSoftware,Altium Limited,Altium Designer,21.6.1 (37)*
G04*
G04 Layer_Physical_Order=2*
G04 Layer_Color=16711680*
%FSLAX25Y25*%
%MOIN*%
G70*
G04*
G04 #@! TF.SameCoordinates,DC8E1805-1AE0-4662-A60C-033F26306971*
G04*
G04*
G04 #@! TF.FilePolarity,Positive*
G04*
G01*
G75*
G04:AMPARAMS|DCode=26|XSize=157.48mil|YSize=157.48mil|CornerRadius=39.37mil|HoleSize=0mil|Usage=FLASHONLY|Rotation=0.000|XOffset=0mil|YOffset=0mil|HoleType=Round|Shape=RoundedRectangle|*
%AMROUNDEDRECTD26*
21,1,0.15748,0.07874,0,0,0.0*
21,1,0.07874,0.15748,0,0,0.0*
1,1,0.07874,0.03937,-0.03937*
1,1,0.07874,-0.03937,-0.03937*
1,1,0.07874,-0.03937,0.03937*
1,1,0.07874,0.03937,0.03937*
%
%ADD26ROUNDEDRECTD26*%
%ADD27O,0.08268X0.05512*%
%ADD28C,0.02756*%
G36*
X502925Y365723D02*
Y266167D01*
X499581Y262823D01*
X325222D01*
X321878Y266167D01*
Y365723D01*
X325222Y369067D01*
X499581D01*
X502925Y365723D01*
D02*
G37*
%LPC*%
G36*
X496063Y363033D02*
X493110D01*
Y355315D01*
X500828D01*
Y358268D01*
X500666Y359501D01*
X500190Y360650D01*
X499433Y361637D01*
X498446Y362394D01*
X497296Y362871D01*
X496063Y363033D01*
D02*
G37*
G36*
X491142D02*
X488189D01*
X486956Y362871D01*
X485806Y362394D01*
X484820Y361637D01*
X484062Y360650D01*
X483586Y359501D01*
X483424Y358268D01*
Y355315D01*
X491142D01*
Y363033D01*
D02*
G37*
G36*
X348425D02*
X345472D01*
Y355315D01*
X353190D01*
Y358268D01*
X353028Y359501D01*
X352552Y360650D01*
X351795Y361637D01*
X350808Y362394D01*
X349658Y362871D01*
X348425Y363033D01*
D02*
G37*
G36*
X343504D02*
X340551D01*
X339318Y362871D01*
X338169Y362394D01*
X337182Y361637D01*
X336424Y360650D01*
X335948Y359501D01*
X335786Y358268D01*
Y355315D01*
X343504D01*
Y363033D01*
D02*
G37*
G36*
X458071Y351015D02*
X457677D01*
Y348425D01*
X461498D01*
X461166Y349228D01*
X460598Y349968D01*
X459858Y350536D01*
X458996Y350893D01*
X458071Y351015D01*
D02*
G37*
G36*
X455709D02*
X455315D01*
X454390Y350893D01*
X453528Y350536D01*
X452788Y349968D01*
X452220Y349228D01*
X451887Y348425D01*
X455709D01*
Y351015D01*
D02*
G37*
G36*
X500828Y353346D02*
X493110D01*
Y345628D01*
X496063D01*
X497296Y345791D01*
X498446Y346267D01*
X499433Y347024D01*
X500190Y348011D01*
X500666Y349160D01*
X500828Y350394D01*
Y353346D01*
D02*
G37*
G36*
X491142D02*
X483424D01*
Y350394D01*
X483586Y349160D01*
X484062Y348011D01*
X484820Y347024D01*
X485806Y346267D01*
X486956Y345791D01*
X488189Y345628D01*
X491142D01*
Y353346D01*
D02*
G37*
G36*
X353190D02*
X345472D01*
Y345628D01*
X348425D01*
X349658Y345791D01*
X350808Y346267D01*
X351795Y347024D01*
X352552Y348011D01*
X353028Y349160D01*
X353190Y350394D01*
Y353346D01*
D02*
G37*
G36*
X343504D02*
X335786D01*
Y350394D01*
X335948Y349160D01*
X336424Y348011D01*
X337182Y347024D01*
X338169Y346267D01*
X339318Y345791D01*
X340551Y345628D01*
X343504D01*
Y353346D01*
D02*
G37*
G36*
X461498Y346457D02*
X457677D01*
Y343867D01*
X458071D01*
X458996Y343989D01*
X459858Y344346D01*
X460598Y344914D01*
X461166Y345654D01*
X461498Y346457D01*
D02*
G37*
G36*
X455709D02*
X451887D01*
X452220Y345654D01*
X452788Y344914D01*
X453528Y344346D01*
X454390Y343989D01*
X455315Y343867D01*
X455709D01*
Y346457D01*
D02*
G37*
G36*
X458071Y337045D02*
X455315D01*
X454439Y336929D01*
X453623Y336591D01*
X452923Y336054D01*
X452385Y335353D01*
X452047Y334537D01*
X451932Y333661D01*
X452047Y332786D01*
X452385Y331970D01*
X452923Y331269D01*
X453623Y330731D01*
X454439Y330393D01*
X455315Y330278D01*
X458071D01*
X458947Y330393D01*
X459762Y330731D01*
X460463Y331269D01*
X461001Y331970D01*
X461339Y332786D01*
X461454Y333661D01*
X461339Y334537D01*
X461001Y335353D01*
X460463Y336054D01*
X459762Y336591D01*
X458947Y336929D01*
X458071Y337045D01*
D02*
G37*
G36*
X345866Y328377D02*
X345472D01*
Y325787D01*
X349294D01*
X348961Y326590D01*
X348393Y327330D01*
X347653Y327898D01*
X346791Y328255D01*
X345866Y328377D01*
D02*
G37*
G36*
X343504D02*
X343110D01*
X342185Y328255D01*
X341323Y327898D01*
X340583Y327330D01*
X340015Y326590D01*
X339683Y325787D01*
X343504D01*
Y328377D01*
D02*
G37*
G36*
X349294Y323819D02*
X345472D01*
Y321229D01*
X345866D01*
X346791Y321351D01*
X347653Y321708D01*
X348393Y322276D01*
X348961Y323016D01*
X349294Y323819D01*
D02*
G37*
G36*
X343504D02*
X339683D01*
X340015Y323016D01*
X340583Y322276D01*
X341323Y321708D01*
X342185Y321351D01*
X343110Y321229D01*
X343504D01*
Y323819D01*
D02*
G37*
G36*
X345866Y308501D02*
X343110D01*
X342235Y308386D01*
X341419Y308048D01*
X340718Y307510D01*
X340180Y306810D01*
X339842Y305994D01*
X339727Y305118D01*
X339842Y304242D01*
X340180Y303427D01*
X340718Y302726D01*
X341419Y302188D01*
X342235Y301850D01*
X343110Y301735D01*
X345866D01*
X346742Y301850D01*
X347558Y302188D01*
X348258Y302726D01*
X348796Y303427D01*
X349134Y304242D01*
X349249Y305118D01*
X349134Y305994D01*
X348796Y306810D01*
X348258Y307510D01*
X347558Y308048D01*
X346742Y308386D01*
X345866Y308501D01*
D02*
G37*
G36*
X496063Y284102D02*
X488189D01*
X487005Y283946D01*
X485902Y283489D01*
X484954Y282762D01*
X484227Y281815D01*
X483770Y280712D01*
X483614Y279528D01*
Y271654D01*
X483770Y270469D01*
X484227Y269366D01*
X484954Y268419D01*
X485902Y267692D01*
X487005Y267235D01*
X488189Y267079D01*
X496063D01*
X497247Y267235D01*
X498350Y267692D01*
X499298Y268419D01*
X500025Y269366D01*
X500482Y270469D01*
X500638Y271654D01*
Y279528D01*
X500482Y280712D01*
X500025Y281815D01*
X499298Y282762D01*
X498350Y283489D01*
X497247Y283946D01*
X496063Y284102D01*
D02*
G37*
G36*
X348425D02*
X340551D01*
X339367Y283946D01*
X338264Y283489D01*
X337316Y282762D01*
X336590Y281815D01*
X336133Y280712D01*
X335977Y279528D01*
Y271654D01*
X336133Y270469D01*
X336590Y269366D01*
X337316Y268419D01*
X338264Y267692D01*
X339367Y267235D01*
X340551Y267079D01*
X348425D01*
X349609Y267235D01*
X350712Y267692D01*
X351660Y268419D01*
X352387Y269366D01*
X352844Y270469D01*
X353000Y271654D01*
Y279528D01*
X352844Y280712D01*
X352387Y281815D01*
X351660Y282762D01*
X350712Y283489D01*
X349609Y283946D01*
X348425Y284102D01*
D02*
G37*
%LPD*%
D26*
X344488Y354331D02*
D03*
X492126D02*
D03*
Y275590D02*
D03*
X344488D02*
D03*
D27*
X456693Y333661D02*
D03*
Y347441D02*
D03*
X344488Y324803D02*
D03*
Y305118D02*
D03*
D28*
X496063Y342520D02*
D03*
X484252D02*
D03*
X478346Y354331D02*
D03*
X466535D02*
D03*
X460630Y271654D02*
D03*
X454724Y354331D02*
D03*
X448819Y342520D02*
D03*
Y271654D02*
D03*
X442913Y354331D02*
D03*
X437008Y342520D02*
D03*
X442913Y283465D02*
D03*
X437008Y271654D02*
D03*
X425197Y318898D02*
D03*
X431102Y307086D02*
D03*
X425197Y271654D02*
D03*
X419291Y354331D02*
D03*
X413386Y295275D02*
D03*
Y271654D02*
D03*
X395669Y307086D02*
D03*
X383858D02*
D03*
X372047Y354331D02*
D03*
X366142Y342520D02*
D03*
X372047Y330709D02*
D03*
X366142Y318898D02*
D03*
Y271654D02*
D03*
X360236Y354331D02*
D03*
X354331Y342520D02*
D03*
X360236Y330709D02*
D03*
X354331Y318898D02*
D03*
X342520Y342520D02*
D03*
X348425Y330709D02*
D03*
X342520Y318898D02*
D03*
X330709Y342520D02*
D03*
X336614Y330709D02*
D03*
X330709Y318898D02*
D03*
M02*
